<?xml version="1.0" encoding="UTF-8" standalone="no"?>
<svg
   xmlns:dc="http://purl.org/dc/elements/1.1/"
   xmlns:cc="http://creativecommons.org/ns#"
   xmlns:rdf="http://www.w3.org/1999/02/22-rdf-syntax-ns#"
   xmlns:svg="http://www.w3.org/2000/svg"
   xmlns="http://www.w3.org/2000/svg"
   version="1.1"
   id="svg3339"
   viewBox="0 0 744.09448819 1052.3622047"
   height="297mm"
   width="210mm">
  <defs
     id="defs3341" />
  <metadata
     id="metadata3344">
    <rdf:RDF>
      <cc:Work
         rdf:about="">
        <dc:format>image/svg+xml</dc:format>
        <dc:type
           rdf:resource="http://purl.org/dc/dcmitype/StillImage" />
        <dc:title></dc:title>
      </cc:Work>
    </rdf:RDF>
  </metadata>
  <g
     id="layer1">
    <path
       id="path3347"
       d="m 273.75134,448.29098 c 1.01015,-1.34687 2.0203,-2.69374 3.03046,-4.04061 0,-0.67343 -0.30117,-1.41796 0,-2.0203 0.15058,-0.30117 0.77205,0.23809 1.01015,0 2.55155,-2.55155 0.38816,-1.16449 1.01015,-3.03046 0.2381,-0.71429 0.67344,-1.34687 1.01016,-2.02031 0.33671,-0.67343 0.47775,-1.4879 1.01015,-2.0203 0.23809,-0.2381 0.77205,0.23809 1.01015,0 0.2381,-0.2381 -0.2381,-0.77206 0,-1.01015 0.0647,-0.0647 3.85245,-1.89487 4.04061,-2.02031 0.39621,-0.26414 0.58424,-0.79719 1.01015,-1.01015 0.30117,-0.15059 0.69072,0.10648 1.01016,0 1.42857,-0.47619 2.61203,-1.54412 4.04061,-2.02031 0.31943,-0.10648 0.69071,0.10648 1.01015,0 0.71428,-0.23809 1.27762,-0.88637 2.0203,-1.01015 1.32855,-0.22142 2.69374,0 4.04061,0 0.67344,0 1.34687,0 2.02031,0 0.33672,0 0.70898,-0.15058 1.01015,0 0.42592,0.21296 0.61394,0.74601 1.01015,1.01015 0.62647,0.41765 1.48791,0.47776 2.02031,1.01016 0.23809,0.23809 -0.2381,0.77205 0,1.01015 0.23809,0.23809 0.70898,-0.15059 1.01015,0 0.41795,0.20897 2.74501,2.60229 3.03046,3.03046 0.33672,0.67343 0.67343,1.34687 1.01015,2.0203 0,0.33672 -0.15058,0.70899 0,1.01015 0.21296,0.42592 0.7972,0.58424 1.01015,1.01016 0.15059,0.30117 -0.15058,0.70898 0,1.01015 0.21296,0.42592 0.85957,0.5584 1.01016,1.01015 0.21296,0.63888 -0.21296,1.38143 0,2.02031 0.15058,0.45175 0.79719,0.58423 1.01015,1.01015 0.22507,0.45014 -0.072,3.68044 0,4.04061 0.20882,1.04412 0.7519,1.99746 1.01015,3.03046 0.28127,1.12506 -0.77951,2.13562 1.01015,3.03046 0.0808,0.0404 2.90924,-2.78803 3.03046,-3.03046 0.15059,-0.30117 0,-0.67344 0,-1.01015 0,-1.01016 0,-2.02031 0,-3.03046 0,-0.67344 -0.21296,-1.38143 0,-2.02031 0.15059,-0.45175 0.7972,-0.58423 1.01015,-1.01015 0.15059,-0.30117 0,-0.67344 0,-1.01015 0,-0.33672 0,-0.67344 0,-1.01016 0,-0.57497 -0.0689,-3.93719 0,-4.04061 0.8353,-1.25294 2.97582,-0.95551 4.04061,-2.0203 0.2381,-0.2381 -0.23809,-0.77206 0,-1.01015 0.67344,-0.33672 1.34687,-0.67344 2.02031,-1.01016 0,-0.33671 -0.2381,-0.77205 0,-1.01015 0.23809,-0.23809 0.77206,0.2381 1.01015,0 2.09004,-2.09004 -3.19386,0.0817 1.01015,-2.0203 0.30117,-0.15059 0.70899,0.15058 1.01016,0 0.42591,-0.21296 0.58423,-0.7972 1.01015,-1.01016 0.30117,-0.15058 0.70898,0.15059 1.01015,0 4.77013,-2.38506 -6.16558,0.53125 4.04061,-2.0203 0.65333,-0.16333 1.34687,0 2.02031,0 1.34687,0 2.69374,0 4.04061,0 0.33672,0 0.67343,0 1.01015,0 0.33672,0 0.77206,-0.2381 1.01015,0 0.5324,0.5324 0.47776,1.48791 1.01016,2.0203 0.53239,0.5324 1.39383,0.59251 2.0203,1.01016 0.39621,0.26414 0.58424,0.79719 1.01015,1.01015 0.30117,0.15058 0.77206,-0.2381 1.01016,0 0.53239,0.5324 0.5925,1.39383 1.01015,2.0203 0.26414,0.39622 0.85957,0.5584 1.01015,1.01016 0.21296,0.63887 -0.16333,1.36697 0,2.0203 -0.60885,1.82832 1.63639,1.87871 2.02031,3.03046 0.21295,0.63888 0,1.34687 0,2.0203 0,0.33672 0.15058,0.70899 0,1.01016 -0.21296,0.42592 -0.7972,0.58423 -1.01016,1.01015 -0.15058,0.30117 0.15059,0.70898 0,1.01015 -0.21296,0.42592 -0.79719,0.58424 -1.01015,1.01015 -0.15058,0.30117 0,0.67344 0,1.01016 0,0.33672 -0.15058,0.70898 0,1.01015 0.21296,0.42592 0.79719,0.58423 1.01015,1.01015 0.15059,0.30117 -0.15058,0.70899 0,1.01016 0.21296,0.42591 0.7972,0.58423 1.01016,1.01015 0.0264,0.0528 0.0264,2.97761 0,3.03046 -0.42592,0.85183 -1.59439,1.16847 -2.02031,2.0203 -0.30117,0.60234 0.21296,1.38143 0,2.02031 -0.23809,0.71428 -0.59251,1.39383 -1.01015,2.0203 -0.26414,0.39622 -0.89466,0.54818 -1.01015,1.01015 -0.245,0.98 0.45175,2.12695 0,3.03046 -0.63888,1.27775 -2.17332,1.8876 -3.03046,3.03046 -0.20203,0.26937 0.15058,0.70898 0,1.01015 -0.42592,0.85184 -1.49202,1.22788 -2.02031,2.02031 -0.41764,0.62647 -0.47775,1.4879 -1.01015,2.0203 -0.23809,0.2381 -0.77206,-0.23809 -1.01015,0 -2.20594,2.20594 -0.20998,1.64009 -1.01015,4.04061 -1.05101,3.15301 -0.67344,-0.33672 -2.02031,1.01015 -0.5324,0.5324 -0.5584,1.41797 -1.01015,2.02031 -0.57143,0.7619 -1.49202,1.22788 -2.02031,2.0203 -0.18677,0.28017 0.2381,0.77206 0,1.01016 -0.53239,0.53239 -1.48791,0.47775 -2.0203,1.01015 -0.5324,0.5324 -0.59251,1.39383 -1.01016,2.0203 -0.26414,0.39622 -0.67343,0.67344 -1.01015,1.01016 -0.33672,0.33671 -0.58423,0.79719 -1.01015,1.01015 -0.30117,0.15058 -0.85957,-0.30117 -1.01015,0 -0.30117,0.60234 0.30117,1.41797 0,2.0203 -0.42592,0.85184 -1.34687,1.34687 -2.02031,2.02031 -0.33672,0.33672 -0.85957,0.5584 -1.01015,1.01015 -0.21296,0.63888 0.37355,1.45998 0,2.02031 -0.41765,0.62647 -1.48791,0.47775 -2.02031,1.01015 -0.53239,0.5324 -0.5925,1.39383 -1.01015,2.0203 -0.26414,0.39622 -0.79719,0.58424 -1.01015,1.01016 -0.15059,0.30117 0.23809,0.77205 0,1.01015 -0.2381,0.2381 -0.77206,-0.2381 -1.01015,0 -0.2381,0.2381 0.10648,0.69071 0,1.01015 -0.2381,0.71429 -0.59251,1.39384 -1.01016,2.02031 -0.26414,0.39621 -0.79719,0.58423 -1.01015,1.01015 -0.15058,0.30117 0.18678,0.72999 0,1.01015 -0.52828,0.79243 -1.49202,1.22788 -2.0203,2.02031 -0.18678,0.28016 0.15058,0.70898 0,1.01015 -0.21296,0.42592 -0.67344,0.67344 -1.01016,1.01015 -0.40744,0.40745 -1.1285,1.60469 -2.0203,1.01016 -1.40953,-0.93969 -2.49815,-2.44368 -3.03046,-4.04061 -0.10648,-0.31944 0.15059,-0.70899 0,-1.01016 -0.21296,-0.42592 -0.71268,-0.63831 -1.01015,-1.01015 -1.05173,-1.31466 -1.97873,-2.72595 -3.03046,-4.04061 -0.29747,-0.37184 -0.74601,-0.61394 -1.01015,-1.01015 -0.83529,-1.25294 -1.1168,-2.83594 -2.02031,-4.04061 -0.57142,-0.76191 -1.49202,-1.22788 -2.0203,-2.02031 -0.18678,-0.28016 0.15058,-0.70898 0,-1.01015 -0.42592,-0.85184 -1.49202,-1.22788 -2.02031,-2.02031 -3.66209,-7.32419 1.0648,1.5972 -2.0203,-3.03045 -1.76529,-2.64794 -0.37757,-1.76529 -2.02031,-5.05077 -0.21296,-0.42591 -0.74601,-0.61393 -1.01015,-1.01015 -0.41765,-0.62647 -0.67343,-1.34687 -1.01015,-2.0203 -0.33672,-0.67344 -0.73053,-1.32124 -1.01015,-2.02031 -0.39546,-0.98864 -0.75191,-1.99745 -1.01016,-3.03046 -0.0817,-0.32666 0.15059,-0.70898 0,-1.01015 -0.17986,-0.35972 -1.84044,-1.66058 -2.0203,-2.0203 -0.15059,-0.30117 0.15058,-0.70899 0,-1.01016 -0.54294,-1.08588 -1.47737,-1.94457 -2.02031,-3.03045 -0.15058,-0.30117 0.15059,-0.70899 0,-1.01016 -0.21296,-0.42591 -0.79719,-0.58423 -1.01015,-1.01015 -0.30117,-0.60234 0.21296,-1.38143 0,-2.0203 -2.43898,-7.31696 0.29123,1.59261 -2.0203,-3.03046 -0.4762,-0.95238 -0.41952,-2.1445 -1.01016,-3.03046 -0.18677,-0.28017 -0.77205,0.2381 -1.01015,0 -0.2381,-0.23809 0.2381,-0.77206 0,-1.01015 -0.2381,-0.2381 -0.70898,0.15058 -1.01015,0 -0.1733,-0.0867 -2.98863,-2.90497 -3.03046,-3.03046 -0.21296,-0.63888 0,-1.34687 0,-2.0203 0,-0.33672 0.32666,-0.92849 0,-1.01016 -1.30666,-0.32666 -2.69374,0 -4.04061,0 z"
       style="fill:none;fill-rule:evenodd;stroke:#000000;stroke-width:1px;stroke-linecap:butt;stroke-linejoin:miter;stroke-opacity:1" />
  </g>
</svg>
