<?xml version="1.0" encoding="utf-8"?>
<!-- Generator: Adobe Illustrator 22.1.0, SVG Export Plug-In . SVG Version: 6.00 Build 0)  -->
<svg version="1.1" id="Layer_1" xmlns="http://www.w3.org/2000/svg" xmlns:xlink="http://www.w3.org/1999/xlink" x="0px" y="0px"
	 viewBox="0 0 1920 1200" style="enable-background:new 0 0 1920 1200;" xml:space="preserve">
<style type="text/css">
	.st0{display:none;fill:#FF0000;stroke:#000000;stroke-miterlimit:10;}
	.st1{fill:#FF0000;stroke:#000000;stroke-miterlimit:10;}
</style>
<g>
	<path class="st0" d="M1679.5,319.5c-8.1,198.4-16.2,396.8-24.3,595.2c-280.2-11.4-560.4-22.9-840.5-34.3
		c8.1-198.4,16.2-396.8,24.3-595.2C1119.1,296.7,1399.3,308.1,1679.5,319.5z M1251.9,799L1251.9,799c-0.4-0.2-0.7-0.3-1.3-0.5
		c0.5,2.3,2,3.2,4,2.3c1.6-0.8,3-0.4,4.3,0.4c1,0.6,2,1.3,2.8,2.2c2.4,3,4.7,6,7.1,9c0.3,0.3,0.6,0.6,1.2,1.2c1.4-2.1,2.7-4.1,4-6.1
		c0.1-0.1,0.1-0.3,0.1-0.5c-0.2-2.5,1-4.4,2.4-6.3c0.5-0.7,1.1-1.4,1.6-2.1c0.7-0.9,1.3-1.8,1.2-3c-3.4-0.5-6.6-0.3-8.8,0.4
		c-2.8,0.9-3.3,0.7-4.2-2.1c-0.1-0.3-0.2-0.6-0.3-0.9c-1.4-4.7-2.9-9.3-5.7-13.4c-0.3-0.5-0.8-1-1.4-1.7c-0.5,0.8-1,1.3-1.3,1.9
		c-0.6,1.3-1.2,2.6-1.7,3.9c-0.4,1-0.9,2.1-1.2,3.1c-0.7,2.5-1.3,5.1-1.9,7.6C1252.7,796.1,1252.3,797.5,1251.9,799z M1345.8,875.7
		L1345.8,875.7c1.3,0.3,1.8-0.5,1.8-1.6c0-3.8,1.5-7.3,2.6-10.9c0.4-1.2,0.9-2.5,1.7-3.4c4.5-5,8.8-10.3,14.5-14.2
		c1.5-1,2.7-2.5,3.8-3.9c2.1-3,3.2-6.6,4.3-10.1c0.3-0.9,0.2-2.2-0.3-3c-1.6-2.6-3.5-5.1-5.3-7.7c-0.2-0.2-0.5-0.4-0.8-0.6
		c-5.1-2.5-10.2-3.5-15.3-0.2c-3.1,2-5.8,4.5-8.6,6.8c-2.2,1.9-4.1,4-4.7,7c-0.1,0.4-0.4,0.7-0.8,1.3c-0.5-0.7-0.9-1.1-1.1-1.5
		c-1.8-4.8-5.7-7.1-10.2-8.6c-2.7-0.9-5.3-0.5-7.5,1.3c-2,1.6-3.4,3.6-4.1,6c-1.2,4.3-0.4,8.5,0.7,12.7c0.5,1.8,1.2,3.4,2.5,4.9
		c3.5,4.1,7.1,8.2,10.5,12.5c2.9,3.7,6.3,6.8,10.2,9.3c1.1,0.7,2,1.6,2.9,2.5c1,1.1,1.9,2.4,2.9,3.5c0.8,0.9,1.4,2,3.1,1.5
		C1347.5,878.1,1346.6,876.9,1345.8,875.7z M1021.3,855.8c0.7-0.1,1.3,0,1.8-0.3c1.8-0.9,3.7-1.8,5.4-3c1.8-1.2,3.4-2.6,5.6-3.2
		c2.7-0.6,4.9-2.2,6.8-4.2c2.1-2.2,4.3-4.4,6.8-6c4.7-3.1,9-6.6,13.5-10c3.7-2.9,7.1-6.2,11.6-8c0.7-0.3,1.7-0.7,1.5-2
		c-0.6,0-1.1-0.2-1.6,0c-2.2,0.7-4.2,0.1-6-1c-3.6-2.2-7.6-2.7-11.6-3.4c-3.3-0.5-6.6-1.1-9.8-2.2c-5.7-2-11.3-4-17.4-3.6
		c-0.5,0-1,0-1.4-0.1c-2-0.2-2.1-0.3-2.2-2.4c-0.1-2.9,0-5.8-0.3-8.6c-0.4-4.1-0.1-8.1,0.9-12.1c0.5-1.8,0.7-3.8,0.9-5.7
		c0.4-4.8,0-9.6-0.4-14.3c-0.1-1.1-0.6-2.1-1-3.2c-0.1-0.3-0.7-0.3-1.4-0.6c0.3,1.2,0.7,2,0.8,2.9c0.2,1.9,0.2,3.8,0.5,5.7
		c0.7,5,0.4,10-0.7,14.9c-0.5,2.5-1,5-1.1,7.5c-0.1,4.5,0.3,8.9,0.4,13.4c0,0.5,0,1-0.1,1.9c-2.1-0.3-4.1-0.4-6-0.9
		c-4.8-1.5-9.7-2-14.7-1.9c-4,0-7.7-0.8-11.4-2.3c-1.5-0.6-3.3-1.2-4.9-1c-3.7,0.6-6.3-1.5-9.4-2.8c0.9-0.7,1.8-1.1,2.2-1.8
		c0.9-1.4,2.2-2.2,3.6-3.1c1.3-0.8,2.4-1.8,3.7-2.7c0.6-0.4,1.1-0.9,1.8-1.1c3-0.7,5.5-2.3,7.4-4.6c1.9-2.4,4.3-4,6.9-5.4
		c3-1.6,5.8-3.5,7.8-6.3c2.4-3.3,5.5-6,8.9-8.2c1.4-0.9,2.6-2,3.4-3.5c-1.3-0.7-2,0.2-2.7,0.7c-0.9,0.6-1.7,1.2-2.4,1.9
		c-2.6,2.4-5.4,4.6-7.6,7.2c-2,2.4-4.1,4.6-6.9,6.2c-3.1,1.7-6.2,3.5-8.5,6.5c-1.7,2.2-4,3.7-6.8,4.1c-0.6,0.1-1.3,0.4-1.7,0.8
		c-1.7,1.8-3.7,3-5.8,4.2c-0.5,0.3-0.8,0.7-1.3,1.1c-1,0.9-2,1.8-3.1,2.6c-0.7,0.6-1.7,0.9-1.8,2.2c0.4,0.2,0.7,0.4,1,0.6
		c2.3,0.9,4.6,1.8,6.9,2.6c0.8,0.3,1.7,0.2,2.6,0.3c1.7,0.2,3.3,0.2,4.9,0.5c1.4,0.3,2.7,1,4.1,1.3c2.5,0.5,5,1.2,7.5,1.3
		c5.1,0.1,10,0.4,14.9,1.8c1.6,0.4,3.3,0.5,4.9,0.8c0.7,0.1,1.4,0.3,2.2,0.5c-0.1,3.2,0,6.2-0.4,9.2c-0.7,4.7-1.4,9.3-0.9,14
		c0.4,3.3-0.1,6.7,0.1,10C1022,847.2,1021.8,851.3,1021.3,855.8z M933.6,752c0.6-1.7,0.1-2.8-0.5-3.9c-0.6-1.1-1.2-2.2-1.8-3.4
		c-1-1.9-2.1-3.8-3-5.7c-1.2-2.4-2.5-4.8-3.7-7.3c-0.5-0.9-0.7-1.9-1.2-2.9c-3-5.6-6-11.3-9.2-16.8c-1.7-3-3.7-5.8-5.7-8.6
		c-1.8-2.5-3.7-5-5.5-7.5c-0.3-0.5-0.5-1.1-0.9-1.9c2.4-0.4,4.5-1,6.6-0.9c3.4,0.1,6.7-0.4,10-1c1.5-0.2,3.2,0,4.7,0.1
		c1,0.1,2.1,0.5,3.1,0.4c2.2-0.2,4.3-0.1,6.4,0.6c0.7,0.3,1.6,0.4,2.2-0.7c-0.3-0.4-0.7-0.9-1.1-1.4c-3.9-3.9-7.6-7.9-11.6-11.7
		c-2.9-2.8-5.9-5.4-9-7.9c-2.6-2.1-5.6-3.7-7.5-6.6c-3.2-4.6-7-8.6-11.8-11.8c-1.3-0.8-3-1.6-3.3-3.4c0,0-0.3,0-0.6,0
		c-0.1,0.3-0.2,0.7-0.2,1c-0.3,2-0.5,4-0.9,5.9c-0.9,4.7-0.9,9.3,0,14c0.9,4.3,1.3,2.9-1.8,6.5c-0.2,0.2-0.5,0.5-0.7,0.6
		c-4,2.8-8.2,5.3-12.8,6.8c-3.8,1.2-7.6,2.2-11,4.4c-1.7,1.1-2.7,2.3-3.6,4c1.1,1.7,2.8,2.6,4.3,3.7c1.8,1.3,3.7,2.5,5.5,3.8
		c3.2,2.4,6.2,5,9.5,7.3c8.1,5.6,15.5,12.1,22.8,18.6c5.2,4.6,10.7,8.9,16,13.3c1.4,1.2,2.8,2.4,4.2,3.6c2.5,2.1,4.4,5.2,7.9,5.9
		c0.3,0.1,0.5,0.4,0.8,0.6C931.2,750.7,932.2,751.3,933.6,752z M1460.5,686.3c-0.2-0.3-0.3-0.6-0.4-0.8c-2.5-4.6-6.6-6.4-11.4-7.3
		c-3.2-0.6-6,0.5-8.8,1.5c-2.3,0.8-4,2.3-5.5,4.1c-2.5,3.2-2.5,8-0.3,11c2.4,3.3,5,6.4,8.7,8.3c5.8,3.2,9.3,8.1,11.4,14.2
		c0.8,2.4,1.2,4.8,1.6,7.2c0.1,0.8-0.2,2,1.1,2.3c1.1-0.6,0.8-1.7,0.8-2.6c0.1-1.4,0.2-2.7,1-3.9c1.1-1.5,2.1-3.2,3.3-4.7
		c2-2.5,4.1-5.1,7.4-5.7c2.8-0.5,5.6-1.2,8.3-2.1c3.3-1.1,6.1-2.8,7.7-5.9c1.9-3.5,2.8-7.1,1.3-11c-0.4-1-0.9-2.1-1.2-3.1
		c-0.6-2-1.7-3.6-3.2-5c-2.8-2.6-6.3-3.2-10-3.4c-3-0.2-5.7,0.3-7.8,2.7c-0.8,1-1.7,1.9-2.6,2.8
		C1461.6,685.4,1461.2,685.7,1460.5,686.3z M1479,518.8c-0.1,0.2-0.3,0.4-0.4,0.6c0.2,0.5,0.4,1,0.7,1.4c3.1,4.3,5.2,9.2,7.2,14
		c0.4,1,0.4,2.3,0.6,3.7c-1,0-1.7,0.1-2.4,0.1c-2.9,0.1-5.7,0.3-8.6,0.5c-0.6,0-1.2,0.4-2.1,0.8c1.1,1,1.8,1.7,2.5,2.4
		c1.9,2,3.9,3.7,6.4,5c1.5,0.7,2.8,1.8,4.2,2.7c1,0.6,1.3,1.5,1.1,2.6c-0.3,1.6-0.4,3.2-0.7,4.7c-0.5,2.4-1,4.7-1.5,7
		c-0.1,0.6,0,1.2,0,1.8c0.2,0.1,0.3,0.1,0.5,0.2c2.3-2.4,4.5-4.8,6.9-7.1s4.6-4.9,7.5-6.6c4,2.3,6.4,6.4,10.6,8.9
		c0.1-0.8,0.2-1.1,0.1-1.5c-0.2-1.6-0.6-3.1-0.6-4.7c-0.2-3.8-0.2-7.7-0.4-11.5c-0.1-1.2,0.3-2.2,1-3.1c1.3-1.5,2.6-3.1,3.7-4.7
		c3.7-5,7.3-10.1,11-15.1c0.4-0.6,1.2-1.2,0.4-2.1c-7.4,2.7-12.8,8.5-19.6,12.7c-0.6-1.3-1-2.3-1.4-3.3c-1.2-2.6-2.3-5.2-3.5-7.8
		c-1.2-2.5-2.3-5.1-2.6-7.9c-0.1-1-0.3-2.1-0.6-3.1c-0.2-0.7-0.5-1.2-1.9-0.8c0.5,3.1,0.9,6.3,0.2,9.5c-0.7,3.2-1,6.6-1.6,10.4
		C1490.5,523.9,1485.3,520.3,1479,518.8z M1001.7,676.7c0.6,1.9,1.1,3.3,1.5,4.7c1.6,5.6,3.2,11.2,4.8,16.8c0.7,2.6,1.5,5.2,2.3,7.8
		c0.3,1.1,0,2-0.8,2.8c-3.1,3.7-6.2,7.5-9.3,11.3c-4.5,5.5-9,11-13.5,16.5c-0.5,0.6-1.4,1.1-1.1,2.2c1,0.5,1.5-0.3,2.1-0.8
		c1.1-0.9,2.1-2,3.2-2.8c3-2.1,6.1-4.1,9.2-6.1c3.7-2.5,7.5-4.9,11.2-7.4c3.9-2.7,7.8-5.6,11.7-8.4c1.3-0.9,2.8-1.6,4.1-2.4
		c1.2-0.8,1.2-1.1,0.6-2.3c-1.5-3.3-3.3-6.4-4.3-9.8c-2.4-8.1-6.1-15.8-7.9-24.1c-0.5-2.1-1.1-4.2,0-6.3c0.8-1.6,1.7-3.1,2.7-4.5
		c2.8-3.7,5.8-7.2,8.7-10.8c1.4-1.7,2.8-3.5,4.2-5.2c0.4-0.5,1.1-1.1,0.2-1.8c-1.7,0.4-2.5,0.9-3.5,1.8c-1.8,1.7-3.7,3.3-5.5,5
		c-1.8,1.7-3.6,3.4-5.2,5.3c-3.3,3.7-6.4,7.6-8.6,12.1c-0.3,0.6-0.7,1.1-1.1,1.6c-1.3,1.7-2.6,3.4-3.9,5.2
		C1003.1,676.9,1002.7,676.9,1001.7,676.7z M1076.7,637.3c2.3-0.5,4.1-0.6,5.7-2c3.4-2.8,6.8-5.5,10.8-7.5c3.3-1.6,6.1-4,8.6-6.8
		c1.6-1.8,3.5-3.5,5.4-5c0.7-0.6,1.7-0.9,2.6-0.9c1.7,0,2.9-0.8,3.7-2.2c0.8-1.3,1.9-2.1,3.2-2.8c1.7-1,3.4-2.1,5-3.3
		c2.5-1.8,4.5-4.3,7.6-5.3c0.3-0.1,0.4-0.7,0.6-1.1c-1.6-0.3-3-0.3-4.4-0.7c-4.2-1.3-8.3-2.8-12.5-4.2c-0.8-0.3-1.7-0.6-2.5-0.5
		c-3.4,0.6-6.6-0.7-9.9-1.2c-0.3-0.1-0.6-0.4-1-0.7c1.1-1.6,2.1-3,3.7-4c1.6-0.9,2.9-2,3.8-3.8c1-2,2.6-3.7,4-5.3
		c0.5-0.6,1.4-0.8,2.4-1.3c0.1-0.6,0.3-1.6,0.5-2.7c-1.7-0.1-2.8,0.1-3.4,1.5c-0.3,0.7-0.7,1.5-1.3,2c-0.5,0.5-1.3,1.2-1.9,1.2
		c-1.6,0-2.9,0.6-4.3,1.2c-1.1,0.6-2.4,1.1-3.6,1.2c-3.6,0.4-7,1.6-10.4,2.8c-1.5,0.5-3,1.3-4.1,2.4c-2.5,2.3-5.3,4.1-8.2,5.7
		c-2.5,1.3-4.4,3.1-6,5.4c-1.8,2.6-3.6,5.1-6.5,6.6c-0.7,0.4-1.2,1.3-2,2.2c3.3,1,6.2,1.2,9.1,1c3.5-0.2,7-0.4,10.5-0.1
		c3,0.3,6,0.7,9-0.2c0.8-0.2,1.7-0.5,2.6,0.4c-0.5,0.8-1.1,1.4-1.5,2.1c-0.7,1-1.4,1.9-2,3c-2.1,3.5-4.2,7-6.3,10.5
		c-2,3.3-4.1,6.7-6.1,10C1077.2,635.4,1077.1,636.2,1076.7,637.3z M962,636c0-0.8,0.2-1.3,0.1-1.7c-1.3-4.9-2.9-9.8-5.3-14.3
		c-1.4-2.6-2.7-5.3-4-7.9c-2.1-4.2-3.6-8.7-6.8-12.3c-0.2-0.3-0.3-0.7-0.5-1c1.3-0.6,2.1,0.1,3,0.6c1.7,1,3.4,1.8,5.4,1.7
		s3.7,0.5,5.5,1.3c2,0.9,4.1,1.7,6.3,2.1c1.4,0.3,2.7,0.4,3.7,1.4c1.2,1.2,2.7,1.4,4.5,1.6c-0.2-0.6-0.1-1-0.3-1.3
		c-2.6-2.7-5.1-5.5-7.8-8.1c-2.5-2.3-5.3-4.2-7.8-6.3c-1.6-1.3-3.2-2.7-4.6-4.2c-3.3-3.6-6.7-7-10.5-10.1c-1.5-1.3-3.2-2.5-4.4-4
		c-0.9-1.1-1.7-2-3.5-1.9c-0.1,0.5-0.4,1.4-0.1,1.6c0.9,0.7,0.7,1.5,0.8,2.4c0.3,2.1,0.8,4.2,1,6.3c0.1,1.2,0,2.4,0.1,3.8
		c-1.9,0.3-3.6,0.7-5.3,0.7c-3.9,0.1-7.8,0.1-11.7,0.1c-0.8,0-1.6,0.3-2.8,0.5c0.9,1.1,1.4,1.7,1.9,2.4c1.3,1.7,2.7,3.4,4,5
		c1,1.2,1.9,2.6,3,3.7c3.5,3.8,7.2,7.5,10.7,11.3c3.5,3.7,6.8,7.6,10.2,11.4c1.4,1.5,3,2.9,4.3,4.4c1.9,2.2,3.5,4.5,5.5,6.7
		c1.2,1.3,2.7,2.4,4.1,3.6C960.7,635.9,961.3,635.9,962,636z M1181.6,833.6c0.7,0.4,1.1,0.8,1.6,0.8c2.1-0.1,4.1-0.3,6.2-0.4
		c1.9-0.1,3.8-0.3,5.7-0.4c2.1-0.1,4.2-0.1,6.2-0.4c2.2-0.3,4.4-0.8,6.6-1.2c0.6-0.1,1.2,0,2.1,0c-1.6,2.5-2.2,5.3-4.8,6.7
		c-0.4,0.2-0.7,0.7-1,1c-1.6,1.9-3.2,3.8-4.7,5.7c-1.3,1.5-2.5,3.1-3.7,4.7c-0.5,0.7-1,1.5-1.3,2.2c-1,2.4-1.8,4.9-3.9,6.8
		c-0.7,0.6-1.6,1.6-1.3,2.9c2.2-0.2,4.8-1.3,6.5-2.7c1.6-1.2,3.1-2.5,4.8-3.5c4-2.3,7.8-5,11.2-8.2c0.7-0.7,1.6-1.3,2.6-1.7
		c2.7-1.2,5.2-2.7,7.4-4.7c1.5-1.4,3.2-2.6,5-3.7c2.3-1.4,4.4-2.8,5.9-5.1c0.5-0.8,1.5-1.3,2.3-2c2.1-1.6,4.2-3.2,4-6.4
		c-0.7-0.3-1.4-0.7-2.2-0.9c-4.1-0.8-8.1-1.6-12.2-2.3c-1.2-0.2-2.4-0.4-3.5-0.6c-1.3-0.2-2.6-0.6-4-0.7c-4.1-0.5-5.1-1.5-5.6-5.6
		c0-0.2,0-0.5-0.1-0.7c-0.3-3.7-2.4-6.8-3.7-10.3c-1.1,1-1.8,1.9-2.8,2.6c-1.7,1.3-3,2.8-4,4.7c-1.6,2.8-2.9,5.8-5,8.2
		C1191.6,823.5,1187.6,829.1,1181.6,833.6z M1504.7,428.1c0.3-0.5,0.7-0.9,0.8-1.4c0.3-1.2,0.4-2.4,0.6-3.5
		c1.4-6.3,4.2-11.8,8.5-16.6c4.6-5.2,10.8-6.4,16.7-2.7c0.5,0.3,1.1,0.7,1.6,1.1c0.3,0.2,0.7,0.5,1,0.6c0.4,0.1,1.1,0,1.2-0.2
		c0.2-0.3,0.1-0.9-0.1-1.3s-0.7-0.6-1.1-0.9c-2.6-1.8-5.5-2.9-8.5-3.6c-1.1-0.2-2.2-0.6-3.1-1.2c-1.9-1.2-3.7-2.4-5.6-3.7
		c-2.5-1.8-4.5-4-5.7-6.9c-0.7-1.8-1.4-3.6-2.1-5.3c-0.5-1.2-0.5-2.3,0.1-3.4c2.1-4.1,2.1-8.6,2.4-13.1c0-0.2,0-0.5-0.1-0.7
		c-0.3-1.1-1.2-1.4-2-0.7c-0.7,0.7-1.5,1.6-1.8,2.5c-1.3,3.8-2.2,7.7-1.4,11.8c0.3,1.8-0.1,3.2-1.2,4.4c-1.1,1.2-2.3,2.4-3.5,3.6
		c-5.2,5.2-11.3,9-18.4,11.3c-0.2,1.5,0.8,1.6,1.9,1.6c4.3-0.1,8.2,1.4,11.6,4c4.4,3.3,7.4,7.5,7.7,13.2c0.1,3-0.2,6.1-0.4,9.1
		C1503.9,426.6,1503.5,427.5,1504.7,428.1z M1171.4,550.2c1.4-2.2,2.5-4.2,3.8-6.1c1.3-1.9,2.8-3.7,4.3-5.6c-1.4-0.5-1.5-0.6-2.3,0
		c-1.4,1-2.9,2-4.2,3.1c-1.7,1.4-3.4,2.8-5.4,4.4c-1-1.2-1.8-2.2-2.6-3.1c-0.8-1-1.7-1.9-2.6-2.8c-0.9-1-1.8-2.1-2.8-3
		c-0.9-0.8-1.1-2.3-3-2.4c0.8,4,1.6,7.9,2.3,11.8c-0.4,0.2-0.7,0.4-0.9,0.4c-4.7,0-9.3,1.5-14.1,0.5c-0.5-0.1-1-0.1-1.4,0
		s-0.8,0.5-1.5,1c4.7,2,9.2,3.5,13.6,5.7c-0.4,0.9-0.7,1.5-1.1,2.1c-1.6,2.8-3.3,5.7-4.9,8.5c-0.3,0.6-0.6,1.2,0.5,1.8
		c0.9-0.7,1.9-1.5,2.7-2.4c2.5-2.5,5.3-4.6,8.4-6.4c0.5-0.3,1.1-0.4,1.8-0.7c0.8,1.4,1.4,2.7,2.3,3.9c2.3,3.4,4.3,6.9,4.8,11.1
		c0,0.3,0.6,0.6,1.3,1.4c0.6-5.9,0.5-11.1-0.6-16.5c4.4,0.6,7.9,3.3,12.1,4c0-0.6,0.2-1,0-1.2
		C1179.1,555.9,1175.6,552.9,1171.4,550.2z M1092,703.9c-0.2,0-0.4-0.1-0.6-0.1c-0.1-0.3-0.2-0.6-0.3-0.9c-0.8-2.9-3-4.7-5.4-6.2
		c-2.7-1.7-5.4-0.5-8,0.6c-2.7,1.1-4.5,4.2-4.3,7.1c0.1,1.5,0.2,3,0.4,4.5c0.2,1.3,0.4,2.7,0.8,4c2.5,7,6.7,13,11.5,18.6
		c0.6,0.7,1.3,1.2,1.9,1.8c2.8,2.5,6,4.4,8.3,7.5c0.5,0.7,1.1,1.6,2.5,1.1c-0.5-2.4,1.1-3.8,2.6-5.3c0.2-0.2,0.4-0.5,0.7-0.7
		c1.4-1.2,2.3-2.6,2.8-4.3c0.7-2,1.8-3.7,3.5-5c1.7-1.2,3.3-2.5,4.9-3.8c1-0.9,2.2-1.7,2.9-2.8c2.2-3.4,4.3-6.9,6.1-10.5
		c2.1-4,1-9-2.6-11.4c-4.7-3.1-9.4-5.9-15.4-5.7c-3.3,0.1-5.9,1.6-8,3.7C1094.2,698.3,1092,700.5,1092,703.9z M1000,560.4
		c0.6-0.7,0.8-0.8,0.9-1c0.2-2.5,2-3.8,3.8-4.8c3.1-1.7,5.3-4.3,7.5-6.9c1.7-2.1,3.4-4.3,5.2-6.2c5.2-5.5,8-12,8.8-19.5
		c0.2-1.6,0.2-3.2,0-4.8c-0.2-2.2-1.2-3.1-3.3-2.8c-1.8,0.2-3.7,0.6-5.2,1.5c-1.9,1.1-3.5,2.7-5.3,4.1c-0.5,0.4-0.9,0.8-1.5,1.2
		c-0.1-2.5-0.1-4.7-0.4-6.9c-0.4-2.9-1.7-4.3-4.2-4.9c-4.7-1-11.4,2-12.7,7.4c-0.5,2.1-1,4.2-0.6,6.4c0.8,4.2,1.6,8.5,2.3,12.7
		c1.2,7.4,2.3,14.8,3.5,22.2C999.1,558.7,999.5,559.3,1000,560.4z M1238.7,656.3c-0.2-0.1-0.4-0.2-0.6-0.2c-0.4,0.7-0.8,1.3-1.2,2
		c-0.6,0.9-1.1,1.9-1.9,2.8c-2.3,2.5-4.7,4.8-6.9,7.3c-3.4,3.8-7,7.5-9,12.3c-0.5,1.3-0.7,2.3-0.3,3.7c2.6,8.1,3.4,16.4,3.1,24.8
		c0,0.6,0,1.3-0.2,1.9c-1.4,4.4-2.7,8.9-4.3,13.2c-0.9,2.5-2.3,4.7-3.4,7.1c-0.3,0.6-0.4,1.2-0.6,2c1.7,0.2,1.9-0.9,2.3-1.7
		c1.5-2.9,2.8-5.9,4.3-8.8c1-1.9,2-3.8,3.2-5.6c1.4-2.2,3.1-4.3,4.4-6.5c2.3-3.9,5.2-7.2,8.7-10.2c1.3-1.1,2.4-2.3,3.8-3.6
		c-1.8-1.3-1.9-3.3-2.4-5.1c-0.4-1.4-0.9-2.7-1.3-4.1c-0.7-2.9-1.6-5.9-1.8-8.9c-0.4-5.1,0.2-10.2,1.7-15.2c0.4-1.2,0.9-2.4,1.4-3.5
		C1238.2,658.7,1238.8,657.6,1238.7,656.3z M1376.8,443.5c1.3-1,1.5-1.9,1.6-2.9c0.2-1.4,0.3-2.9,0.6-4.3c1.8-8.8,4.7-17.3,8.2-25.5
		c1.8-4.3,2.8-8.3,1.6-12.8c0-0.2,0-0.3,0-0.5c-0.3-3.6-2.7-5.9-5.5-7.7c-1.9-1.2-3.6-0.7-4.7,1.3c-1,1.8-1.8,3.7-2.6,5.6
		c-0.3,0.6-0.5,1.3-0.6,1.9c-1.6-1-3-2-4.6-2.7c-2.2-0.9-4.3-0.6-5.9,1.3s-3.1,4-1.8,6.7c0.8,1.7,1.8,3.3,2.7,5
		c0.3,0.5,0.7,1.2,0.6,1.7c-0.5,1.8,0.2,3.2,1.2,4.6c0.8,1,1.5,2.1,2,3.3c1.2,3,2.3,6,3.2,9c1.2,4.2,2.1,8.5,3.2,12.8
		C1376.1,441.3,1376.4,442.2,1376.8,443.5z M1455.4,782.7c-0.4-0.9-0.7-1.6-1-2.4c-0.9-2.6-2.8-4.1-5.4-4.6c-2.4-0.5-4.8-0.3-7,0.7
		c-0.7,0.3-1.3,0.9-1.9,1.5c-1.9,2-2.1,4.3-1.6,6.9c0.7,3.2,1.2,6.4,1.8,9.6c0.2,1.2,0.1,2.4,0.1,3.6c-0.1,1.9-0.4,3.8-0.6,5.7
		c-0.2,1.7-0.4,3.5-0.9,5.2c-0.8,3.1-1.9,6.1-2.8,9.1c-0.2,0.7-0.7,1.5,0.4,2.1c0.3-0.4,0.7-0.6,0.9-1c0.9-1.6,1.8-3.2,2.7-4.8
		c1.1-2,2.1-4.1,3.5-6c3.5-4.8,8.5-7.4,13.9-9.2c1.4-0.4,2.8-0.7,4.2-0.2c0.5,0.2,1.2,0.1,1.6-0.1c1.9-1.1,3.9-2.2,5.7-3.4
		c3-2.1,3.8-5.3,3.7-8.6c-0.1-6.7-5.5-9.2-10.5-7.7c-1.7,0.5-3.2,1.4-4.7,2.2C1456.8,781.7,1456.2,782.2,1455.4,782.7z
		 M1314.4,597.7c-0.9-1.8-1.4-3.5-2.4-5c-2.1-3.1-5.8-3.3-8.4-0.5c-0.5,0.6-1,1.2-1.5,1.9c-2.2,3.3-2.7,6.9-2.5,10.8
		c0.1,1.3-0.1,2.6,1.7,2.9c0.4,0.1,0.8,0.7,1.1,1.2c4.9,6.8,10.6,13.1,14.2,20.7c1.1,2.2,2.3,4.4,2.8,6.8c0.3,1.4,0.9,2.7,1.5,4.6
		c0.5-0.9,0.8-1.3,0.9-1.7c0.3-1.6,0.6-3.3,0.8-5c0.4-6.5,2-12.8,3.4-19.1c1.3-6.1,2.7-12.2,4-18.2c0.4-1.8,0.2-3.5-0.4-5.2
		c-1.1-2.9-4.1-4.3-7-3.1c-2.3,0.9-3.9,2.7-5.3,4.7C1316.3,594.8,1315.3,596.2,1314.4,597.7z M899.2,475.1c0.7,0.5,0.9,0.8,1.1,0.8
		c2.3,0.6,4.6,1.1,6.9,1.7c0.5,0.1,1.1,0.2,1.7,0.1c4.5-0.6,9-1.1,13.5-1.8c2.4-0.4,2.4-0.5,3.3,1.8c1.7,4.2,3.4,8.4,5.1,12.6
		c0.2,0.4,0.6,0.7,1.2,1.4c0.2-1,0.5-1.5,0.4-2c-0.1-2.8-0.3-5.6-0.3-8.4c0-2.4,0-4.8,0.3-7.2c0.4-2.9,1-5.8,1.5-8.7
		c0.9-5,2.4-9.7,5.6-13.8c0.2-0.2,0.4-0.5,0.5-0.8c0-0.3,0-0.7-0.2-0.8c-0.2-0.2-0.7-0.2-0.8-0.1c-0.6,0.5-1.2,1.1-1.7,1.7
		c-0.7,0.8-1.3,1.8-2.1,2.6c-6.5,6.9-14.2,12.3-22.4,17c-0.5,0.3-1.2,0.5-1.8,0.7c-3.2,0.8-6.5,1.6-9.7,2.4
		C900.6,474.5,900.1,474.7,899.2,475.1z M1175.5,502.5c0.3,0.1,0.5,0.2,0.8,0.2c1.1-1.7,2.2-3.3,1.9-5.6c-0.2-1.8-0.1-3.6,1.1-5
		c1.6-1.8,3.4-3.8,5.4-5c3.6-2,7-4.5,10.4-6.9c2.5-1.8,3.2-3.3,2.3-6.1c-0.9-3-1.9-5.9-3.1-8.8c-1.1-2.7-3.2-3.7-5.7-3.5
		c-4.4,0.4-8,2.4-10.6,6.2c-0.2,0.3-0.5,0.5-0.8,0.8c-0.6-1-1.1-1.8-1.5-2.7c-1.9-3.5-5-5.2-8.7-6.1c-4.4-1.1-9.3,2.3-10.6,6
		c-1.7,5-2.2,10.2,0.3,15.2c0.7,1.4,1.3,3,2.3,4.2c2.1,2.6,4.4,5.1,6.6,7.5c2.9,3.2,5.6,6.5,6.4,11c0.1,0.6,0.4,1.3,1.4,1.1
		c0.3-1,0.5-2.2,0.7-2.9c-0.9-1.1-1.5-1.9-2.2-2.8c-1.8-2.4-3.5-4.9-5.5-7.2c-1.6-1.9-3.5-3.5-5-5.5c-4.3-5.6-6.6-11.6-4.3-18.8
		c1.6-5,5.6-7.4,10.7-6.1c4.4,1.1,6.8,4.2,8.3,8.2c0.2,0.5,0.1,1.1,0.1,1.6c0,1.7-0.7,3.1-2.4,4c3,0.6,3.5,0.3,3.9-2.2
		c0-0.2,0.1-0.3,0.1-0.5c0.1-4.8,4.4-8.3,8.6-9.4c1.1-0.3,2.2-0.4,3.3-0.3c1.5,0.1,2.7,0.6,3.2,2.4c0.8,2.7,1.9,5.2,2.9,7.8
		c0.2,0.6,0.3,1.2,0.4,1.9c0.3,1.3-0.1,2.4-1.2,3.2c-2.3,1.7-4.6,3.4-7,5c-2.7,1.8-5.7,3.2-8,5.5c-2.1,2.1-3.4,4.2-3.2,7.1
		c0.1,1.7-0.2,3.3-1,4.9C1175.6,501.5,1175.6,502,1175.5,502.5z M1003.2,421.3c-0.4-0.8-1.2-1.8-1-2.3c1.5-3,3.3-6,5-9
		c1.8-0.2,2.4-1.9,3.7-2.8c0.4-0.3,1.3-0.7,1.6-0.5c1.1,0.8,1.6,0,2.2-0.6c2-2.1,2.3-4.9,3-7.5c0.4-1.6,0.5-3.3,0.4-5
		c-0.2-3.3-2.8-4.9-5.9-4c-0.5,0.1-0.9,0.3-1.3,0.5c-1.8,1.2-3.7,2.4-5.5,3.6c-0.7-0.9-1.4-2-2.3-2.9c-2.7-2.8-6.6-2.8-9.4-0.2
		c-3.1,2.8-3.7,6.1-2.7,10c0.9,3.4,2.6,6.3,4.5,9.2c0.5,0.8,1.4,1.6,0.5,2.8c-0.2,0.2,0.2,1,0.5,1.5c1.5,2.2,3.1,4.4,4.9,6.9
		C1001.4,421,1002.2,421.1,1003.2,421.3z M899.7,814.3c-0.2-1.1-0.2-1.7-0.5-2c-0.4-0.6-1-1-1.6-1.4c-1.8-1.1-3-2.6-4-4.3
		c-0.9-1.4-1.8-2.8-2.6-4.3c-1.8-3.5-4.6-5.9-7.5-8.2c-1.7-1.3-3.2-2.6-4.2-4.5c-0.2-0.3-0.7-0.5-1-0.8c-0.3,0.3-0.5,0.5-0.6,0.7
		c-2.7,7.2-5.3,14.4-6.8,21.9c-0.5,2.4-1.4,4.6-2.8,6.5c-0.6,0.8-1.2,1.8-1.8,2.9c1.8-0.3,3.2-1.2,4-2.9c2.4-4.7,6.3-8.2,9.3-12.4
		c6,1.6,11.6,3.9,16.8,7.2C897.2,813.1,898.2,813.5,899.7,814.3z M1290,508.9c0.6,2,1,3.8,1.5,5.5c1.1,3.7,1,7.2-0.6,10.7
		c-0.5,1-0.9,2-1.3,3.1c-0.2,0.5-0.2,1.1-0.3,1.9c1.5-0.7,1.6-0.7,2-1.8c0.9-2.3,1.8-4.6,2.5-7c1-3.4,3.4-5.2,6.6-5.8
		c2.4-0.4,4.9-1.1,7.3,0.1c0.2,0.1,0.5-0.2,1.2-0.4c-0.6-0.7-1.1-1.1-1.5-1.6c-0.8-1-1.7-1.8-2.4-2.9c-0.8-1.4-1.4-2.8-2.1-4.3
		c-1.4-3-2-6.1-1.6-9.3c0.2-2,0.9-4,1.3-6.1c0.3-1.3,0.7-2.6,1-3.9c0.1-0.4-0.2-1-0.6-1.2c-0.3-0.1-0.9,0.1-1.2,0.4
		c-0.5,0.5-0.9,1.2-1.2,1.8c-1,2.2-1.3,4.5-1.3,7c0,1.4-0.2,2.9-0.8,4.1c-1.2,2.5-2.7,4.9-4.3,7.1
		C1293.3,507.6,1292.5,509.4,1290,508.9z M1138.9,829.2c0.1-0.8,0.4-1.7,0.2-2.4c-0.6-2.5-0.2-4.9,0.5-7.3c0.7-2.6,1.4-5.2,2.2-7.8
		c0.5-1.8,1.3-3.6,1.9-5.3c-1.7-1.6-3.2-3-4.8-4.5c-0.8-0.8-1.6-1.6-2.5-2.2c-1.6-1.1-3.4-1.2-4.9,0.1c-1.1,0.9-1.9,2.1-3,3.3
		c-0.4,0-1.2-0.1-2-0.1c-2.9,0.3-4.1,3-2.6,5.4c1.3,2,3.3,3,5.4,3.8c1,0.4,1.8,0.9,2.4,1.8c2.9,4,4.8,8.4,5.8,13.3
		C1137.6,828,1137.5,828.9,1138.9,829.2z M1245.6,369.4c0.1-0.3,0.2-0.5,0.1-0.6c-1.2-2.8-2.3-5.6-3.7-8.3c-0.8-1.6-2-3-3.1-4.5
		c-0.5-0.6-1.1-1.1-2.1-0.7c-4.8,1.6-8.9,4.3-12.7,7.4c-0.2,0.2-0.3,0.5-0.6,0.8c4,5.8,6.9,12.1,9.3,18.6c1.2-0.4,1.1-1,0.9-1.7
		c-0.7-2.7,0-5.2,1-7.7c0.7-1.8,1.3-3.5,2.1-5.4c1.7,0.5,3.2,0.9,4.6,1.3C1242.8,369.1,1244.1,370.2,1245.6,369.4z M1081.3,426.5
		c-0.1,0-0.3,0-0.4,0c-0.8,3.8-1.6,7.6-2.3,11.4c-0.4,2.2-0.2,2.6,1.7,3.9c4.2,2.7,6.9,6.3,6.7,11.6c0,0.3,0,0.6,0,1
		c0.1,1.2,0.2,2.4,0.3,3.8c1.3-1.1,1.3-1.1,1.5-2.2c0.4-2,0.8-4.1,1.2-6.1c0.6-2.4,1.5-4.5,3.5-6.1c0.1-0.1,0.1-0.4,0.2-0.8
		c-3.1-1.3-5.3-3.5-6.5-6.6c-0.7-1.8-1.4-3.6-1.9-5.4c-0.3-1-0.3-2.2-0.1-3.3c0.4-2.3,1.1-4.5,1.6-6.7c0.1-0.4-0.1-0.8-0.1-1.7
		c-0.7,0.7-1.1,1-1.3,1.4c-0.7,1.2-1.3,2.6-2.1,3.8C1082.8,425.3,1082,425.9,1081.3,426.5z M1551,628.4c0.3,0,0.6,0.1,0.9,0.1
		c0.4-0.9,0.9-1.8,1.3-2.7c1.8-3.8,3.2-7.8,5.8-11.2c1.4-1.7,1.2-3.7,1-5.7c-0.1-1.2-0.9-2.3-2.2-2.2c-1.9,0-3.7,0.4-5.5,0.7
		c-0.4,0.1-0.6,0.7-1,1c-1.5,1.7-1.3,3.9-1.2,5.9c0.1,4,0.4,8,0.6,11.9C1550.8,626.9,1550.9,627.7,1551,628.4z"/>
	<path class="st0" d="M1021.3,855.8c0.5-4.5,0.6-8.6,0.4-12.7c-0.2-3.3,0.2-6.7-0.1-10c-0.6-4.8,0.1-9.4,0.9-14c0.5-3,0.3-6,0.4-9.2
		c-0.9-0.2-1.6-0.3-2.2-0.5c-1.6-0.3-3.3-0.4-4.9-0.8c-4.9-1.4-9.9-1.7-14.9-1.8c-2.5,0-5-0.7-7.5-1.3c-1.4-0.3-2.7-1.1-4.1-1.3
		c-1.6-0.3-3.3-0.4-4.9-0.5c-0.9-0.1-1.8,0-2.6-0.3c-2.3-0.8-4.6-1.7-6.9-2.6c-0.3-0.1-0.7-0.4-1-0.6c0.1-1.2,1.1-1.6,1.8-2.2
		c1-0.8,2-1.7,3.1-2.6c0.4-0.4,0.8-0.8,1.3-1.1c2.1-1.1,4.1-2.4,5.8-4.2c0.4-0.4,1.1-0.7,1.7-0.8c2.9-0.5,5.2-2,6.8-4.1
		c2.3-3,5.4-4.7,8.5-6.5c2.8-1.6,4.8-3.7,6.9-6.2c2.2-2.7,5-4.9,7.6-7.2c0.8-0.7,1.6-1.3,2.4-1.9c0.7-0.5,1.4-1.3,2.7-0.7
		c-0.9,1.5-2.1,2.6-3.4,3.5c-3.5,2.2-6.5,4.8-8.9,8.2c-2,2.8-4.8,4.7-7.8,6.3c-2.6,1.4-5,3-6.9,5.4c-1.9,2.3-4.4,3.9-7.4,4.6
		c-0.7,0.1-1.2,0.7-1.8,1.1c-1.2,0.9-2.4,1.9-3.7,2.7c-1.3,0.9-2.7,1.6-3.6,3.1c-0.4,0.7-1.3,1.1-2.2,1.8c3.1,1.3,5.7,3.4,9.4,2.8
		c1.5-0.3,3.3,0.4,4.9,1c3.7,1.5,7.4,2.3,11.4,2.3c5,0,9.9,0.5,14.7,1.9c1.9,0.6,3.9,0.6,6,0.9c0-0.9,0.1-1.4,0.1-1.9
		c-0.1-4.5-0.5-8.9-0.4-13.4c0-2.5,0.5-5.1,1.1-7.5c1.1-5,1.4-9.9,0.7-14.9c-0.2-1.9-0.2-3.8-0.5-5.7c-0.1-0.8-0.4-1.6-0.8-2.9
		c0.7,0.3,1.3,0.3,1.4,0.6c0.4,1,0.9,2.1,1,3.2c0.4,4.8,0.9,9.5,0.4,14.3c-0.2,1.9-0.4,3.8-0.9,5.7c-1,4-1.4,8-0.9,12.1
		c0.3,2.8,0.2,5.7,0.3,8.6c0.1,2,0.2,2.2,2.2,2.4c0.5,0.1,1,0.1,1.4,0.1c6.2-0.4,11.8,1.6,17.4,3.6c3.1,1.1,6.5,1.7,9.8,2.2
		c4,0.7,8,1.2,11.6,3.4c1.8,1.1,3.8,1.7,6,1c0.5-0.1,1,0,1.6,0c0.1,1.3-0.8,1.7-1.5,2c-4.4,1.9-7.9,5.2-11.6,8
		c-4.4,3.4-8.8,6.9-13.5,10c-2.5,1.6-4.7,3.8-6.8,6c-1.9,2-4.1,3.6-6.8,4.2c-2.2,0.5-3.8,1.9-5.6,3.2c-1.7,1.2-3.6,2.1-5.4,3
		C1022.6,855.7,1022,855.7,1021.3,855.8z M1069.7,820.9c-4.3-1.8-7.9-4.1-12.2-4.5c-1.8-0.2-3.7-0.3-5.4-0.8
		c-4.8-1.3-9.7-2.7-14.4-4.3c-4.3-1.4-8.6-0.9-13.2-1.3c-0.2,1.2-0.3,2.1-0.4,3c-0.2,2.4-0.1,4.8-0.6,7.2c-0.8,4.3-1.3,8.7-0.6,13.1
		c0.2,0.9,0.1,1.9,0.2,2.9c0,4.7,0,9.4,0.1,14.1c0,1.1,0.2,2.2,0.3,3.3c1.9,0,3-1,4.1-2c1.8-1.6,3.9-2.8,6.2-3.4
		c2.1-0.5,3.9-1.5,5.3-3.1c3.2-3.6,7-6.4,11-9.2c5.2-3.6,10.2-7.7,15.2-11.6C1066.6,823.2,1068,822.2,1069.7,820.9z"/>
	<path class="st0" d="M933.6,752c-1.3-0.8-2.4-1.4-3.5-2c-0.3-0.2-0.5-0.5-0.8-0.6c-3.6-0.8-5.4-3.8-7.9-5.9
		c-1.4-1.2-2.8-2.4-4.2-3.6c-5.4-4.4-10.8-8.7-16-13.3c-7.4-6.5-14.8-13-22.8-18.6c-3.3-2.3-6.3-4.9-9.5-7.3
		c-1.8-1.3-3.7-2.5-5.5-3.8c-1.6-1.1-3.2-2.1-4.3-3.7c0.9-1.7,2-2.9,3.6-4c3.5-2.2,7.2-3.2,11-4.4c4.6-1.5,8.8-4,12.8-6.8
		c0.3-0.2,0.5-0.4,0.7-0.6c3.2-3.6,2.7-2.2,1.8-6.5c-0.9-4.7-0.9-9.3,0-14c0.4-2,0.6-3.9,0.9-5.9c0.1-0.4,0.2-0.7,0.2-1
		c0.3,0,0.6,0,0.6,0c0.3,1.9,2.1,2.6,3.3,3.4c4.7,3.2,8.6,7.2,11.8,11.8c2,2.9,4.9,4.5,7.5,6.6c3.1,2.5,6.1,5.1,9,7.9
		c4,3.8,7.8,7.8,11.6,11.7c0.4,0.4,0.8,0.9,1.1,1.4c-0.6,1.1-1.5,1-2.2,0.7c-2.1-0.8-4.2-0.8-6.4-0.6c-1,0.1-2-0.3-3.1-0.4
		c-1.6-0.1-3.2-0.4-4.7-0.1c-3.3,0.5-6.6,1-10,1c-2.1,0-4.2,0.6-6.6,0.9c0.4,0.8,0.5,1.4,0.9,1.9c1.8,2.5,3.8,4.9,5.5,7.5
		c2,2.8,4,5.6,5.7,8.6c3.2,5.5,6.2,11.2,9.2,16.8c0.5,0.9,0.8,1.9,1.2,2.9c1.2,2.4,2.4,4.8,3.7,7.3c1,1.9,2,3.8,3,5.7
		c0.6,1.1,1.2,2.3,1.8,3.4C933.7,749.3,934.2,750.3,933.6,752z M931.2,691.7c0.1-0.2,0.1-0.4,0.2-0.5c-0.3-0.4-0.5-0.8-0.8-1.1
		c-2.6-2.6-5.3-5.1-7.7-7.8c-4.1-4.5-8.5-8.6-13.7-11.8c-1.5-0.9-2.8-2.4-3.9-3.8c-3-3.9-6-7.6-9.9-10.7c-1.3-1-2.7-1.8-4.4-2.2
		c-0.5,2.9-1.3,5.6-1.3,8.4c0,3.4-0.1,6.9,1,10.2c0.7,2,1,3.7-1.3,4.8c-0.3,0.2-0.5,0.7-0.7,0.9c-0.8,0.7-1.6,1.6-2.5,2.1
		c-2.5,1.4-5,2.7-7.5,4.1c-2.3,1.3-4.8,2.2-7.4,2.7c-4,0.7-7.2,2.8-10.1,5.5c-0.2,0.2-0.2,0.6-0.4,1.1c1.5,1,3,2.1,4.5,3.1
		c0.9,0.6,1.8,1.1,2.6,1.7c3.2,2.5,6.3,5.1,9.7,7.5c9.4,6.6,18.2,14.1,26.7,21.8c3.8,3.4,7.8,6.6,11.7,9.9c2.3,1.9,4.7,3.6,6.9,5.6
		c2.3,2,4.2,4.6,7.4,5.5c0.4,0.1,0.6,0.5,1,0.7s0.7,0.3,1.1,0.5c-1.9-4.4-4.2-8.4-6.5-12.4c-0.4-0.6-0.7-1.3-1-1.9
		c-2-5.5-5-10.5-7.9-15.6c-1.6-2.8-2.9-5.9-4.7-8.6c-3.2-4.8-6.7-9.3-10-14c-0.9-1.3-2-2.4-2.2-4.2c3.1-0.4,6.1-0.8,9-1.2
		c0.2,0,0.5,0,0.7,0c2.8,0.4,5.5-0.4,8.3-0.7c1.3-0.1,2.5-0.3,3.8-0.3C924.9,691.1,928,691.4,931.2,691.7z"/>
	<path class="st0" d="M1460.5,686.3c0.6-0.5,1.1-0.9,1.5-1.2c0.9-0.9,1.8-1.8,2.6-2.8c2.1-2.4,4.8-2.9,7.8-2.7
		c3.6,0.2,7.1,0.8,10,3.4c1.5,1.4,2.6,3,3.2,5c0.3,1.1,0.8,2.1,1.2,3.1c1.4,3.9,0.6,7.5-1.3,11c-1.7,3.2-4.5,4.8-7.7,5.9
		c-2.7,0.9-5.5,1.6-8.3,2.1c-3.3,0.6-5.5,3.1-7.4,5.7c-1.2,1.5-2.1,3.2-3.3,4.7c-0.9,1.2-1,2.5-1,3.9c0,0.9,0.3,2-0.8,2.6
		c-1.3-0.3-1-1.5-1.1-2.3c-0.3-2.5-0.7-4.9-1.6-7.2c-2.1-6.1-5.5-11.1-11.4-14.2c-3.6-2-6.2-5-8.7-8.3c-2.2-2.9-2.2-7.8,0.3-11
		c1.4-1.9,3.2-3.3,5.5-4.1c2.9-1,5.7-2.1,8.8-1.5c4.8,0.9,9,2.8,11.4,7.3C1460.3,685.7,1460.4,685.9,1460.5,686.3z M1456.3,717.4
		c0.5-0.9,1-1.7,1.5-2.5c2-3.9,5.1-6.5,9.1-8c2.3-0.9,4.8-1.3,7.1-2c2-0.6,3.9-1.4,5.8-2.1c2-2.9,4-5.7,4.8-9.2
		c0.1-0.4,0.1-0.8,0-1.2c-0.5-1.9-1-3.9-1.7-5.7c-0.4-0.9-1.2-1.7-1.9-2.4c-1.7-1.8-4.1-2.2-6.3-2.7c-4.1-0.8-8-0.3-10.6,3.6
		c-0.3,0.5-0.7,0.9-1.1,1.2c-1.3,1.1-1.8,2.3-1.7,4c0.1,1.1,0,2.4-1.1,3.5c-0.3-0.7-0.7-1.1-0.8-1.6c-0.1-0.8,0-1.6,0-2.4
		c-0.1-2.8-1.3-5.2-3.5-6.8c-6.7-4.4-10.7-4.3-17.4-0.7c-2.3,1.2-4.1,3.2-4.3,6c-0.1,1.5-0.1,3.2,0.6,4.4c1.6,2.5,3.7,4.7,5.6,7.1
		c2.4,0.6,4.1,2.3,6.1,3.6c2.4,1.5,4.4,3.5,5.7,6C1453.6,712,1454.9,714.6,1456.3,717.4z"/>
	<path class="st0" d="M1479,518.8c6.3,1.5,11.5,5.1,16.7,9.7c0.6-3.8,0.8-7.1,1.6-10.4c0.7-3.2,0.3-6.4-0.2-9.5
		c1.3-0.4,1.7,0.1,1.9,0.8c0.2,1,0.5,2,0.6,3.1c0.3,2.8,1.4,5.4,2.6,7.9c1.2,2.6,2.4,5.2,3.5,7.8c0.4,1,0.9,2,1.4,3.3
		c6.8-4.1,12.2-10,19.6-12.7c0.8,0.9,0,1.5-0.4,2.1c-3.6,5.1-7.3,10.1-11,15.1c-1.2,1.6-2.5,3.1-3.7,4.7c-0.7,0.9-1.1,1.9-1,3.1
		c0.2,3.8,0.2,7.7,0.4,11.5c0.1,1.6,0.4,3.1,0.6,4.7c0,0.4-0.1,0.7-0.1,1.5c-4.2-2.5-6.6-6.6-10.6-8.9c-2.9,1.7-5.1,4.2-7.5,6.6
		c-2.3,2.3-4.6,4.7-6.9,7.1c-0.2-0.1-0.3-0.1-0.5-0.2c0-0.6-0.1-1.2,0-1.8c0.5-2.4,1-4.7,1.5-7c0.3-1.6,0.4-3.2,0.7-4.7
		c0.2-1.2-0.1-2-1.1-2.6c-1.4-0.9-2.7-2-4.2-2.7c-2.5-1.2-4.5-3-6.4-5c-0.7-0.7-1.4-1.4-2.5-2.4c0.9-0.3,1.5-0.7,2.1-0.8
		c2.9-0.2,5.7-0.3,8.6-0.5c0.7,0,1.4-0.1,2.4-0.1c-0.2-1.4-0.2-2.7-0.6-3.7c-2-4.9-4.1-9.7-7.2-14c-0.3-0.4-0.5-0.9-0.7-1.4
		C1478.7,519.2,1478.8,519,1479,518.8z M1523,523.1c-0.1-0.1-0.2-0.3-0.4-0.4c-0.8,0.4-1.6,0.7-2.3,1.2c-1.6,1.1-3.2,2.4-4.8,3.6
		c-2.1,1.6-4.2,3.2-6.4,4.7c-1,0.7-2.1,1.4-3.6,1c-1.4-5.3-3.7-10.1-6.5-15.2c-1.2,4.6-0.9,9.1-2.4,13.6c-4.6-4-8.6-8.1-14.5-9.8
		c0.4,0.7,0.6,1.2,0.8,1.7c1.6,3.4,3.3,6.7,4.9,10.1c0.9,2,1.4,4.2,0.4,6.3c-3.7,0.1-7.2,0.3-11.1,0.7c1.8,2,3.5,3.2,5.3,4.3
		c2.2,1.3,4.3,2.8,6.4,4.2c1,0.6,1.4,1.4,1.1,2.6c-0.7,3-1.3,6.1-2,9.1c-0.1,0.5-0.1,1-0.2,1.9c4.2-5,8.6-9.1,13.4-12.6
		c1.6,1.4,2.9,2.5,4.2,3.7c1.3,1.1,2.5,2.3,3.7,3.4c0.2-4.9,0.1-9.5-0.2-14.1c0-0.8-0.3-1.5,0.3-2.2c2.5-3.1,5.1-6.2,7.5-9.3
		C1518.9,529,1520.9,526,1523,523.1z"/>
	<path class="st0" d="M1001.7,676.7c1,0.2,1.4,0.2,1.7,0.3c1.4-1.8,2.6-3.5,3.9-5.2c0.4-0.5,0.8-1,1.1-1.6c2.2-4.5,5.3-8.4,8.6-12.1
		c1.6-1.9,3.4-3.6,5.2-5.3s3.7-3.3,5.5-5c1-0.9,1.8-1.3,3.5-1.8c0.9,0.7,0.2,1.3-0.2,1.8c-1.4,1.8-2.8,3.5-4.2,5.2
		c-2.9,3.6-5.9,7.2-8.7,10.8c-1.1,1.4-1.9,2.9-2.7,4.5c-1.1,2.1-0.5,4.2,0,6.3c1.9,8.3,5.6,15.9,7.9,24.1c1,3.4,2.8,6.6,4.3,9.8
		c0.6,1.3,0.6,1.6-0.6,2.3c-1.4,0.8-2.8,1.5-4.1,2.4c-3.9,2.8-7.7,5.6-11.7,8.4c-3.7,2.5-7.4,5-11.2,7.4c-3.1,2-6.2,4-9.2,6.1
		c-1.2,0.8-2.2,1.9-3.2,2.8c-0.6,0.5-1.1,1.3-2.1,0.8c-0.2-1.1,0.6-1.6,1.1-2.2c4.5-5.5,9-11,13.5-16.5c3.1-3.8,6.1-7.6,9.3-11.3
		c0.7-0.9,1.1-1.8,0.8-2.8c-0.7-2.6-1.5-5.2-2.3-7.8c-1.6-5.6-3.2-11.2-4.8-16.8C1002.8,680,1002.3,678.6,1001.7,676.7z
		 M1025.8,709.7c-0.1-0.4-0.2-0.9-0.4-1.3c-1.8-4.8-3.6-9.6-5.3-14.4c-0.7-1.8-0.9-3.8-1.8-5.5c-2.1-4.4-3.3-9-4.5-13.6
		c-0.9-3.3-1-6.4,1.4-9.2c0.3-0.3,0.4-0.7,0.7-1c2.3-3,4.7-6,7-9.1c0.3-0.4,0.5-0.9,0.8-1.4c-0.6,0-0.8,0.2-1.1,0.4
		c-4.3,4-8,8.5-11.1,13.4c-1.4,2.2-2.7,4.5-4.4,6.5c-1.8,2.1-1.5,4.7-2.2,7.1c-0.1,0.2,0.1,0.5,0.2,0.7c2,6.6,4.1,13.1,6,19.7
		c0.5,1.8,0.7,3.8,0.8,5.7c0,0.5-0.4,1.2-0.7,1.7c-5.5,6.6-11,13.2-16.5,19.9c-0.7,0.8-1.3,1.7-1.9,2.5c0.1,0.1,0.2,0.2,0.4,0.4
		C1004,724.9,1014.7,717.1,1025.8,709.7z"/>
	<path class="st0" d="M1076.7,637.3c0.4-1.1,0.6-1.8,0.9-2.5c2-3.4,4.1-6.7,6.1-10c2.1-3.5,4.1-7,6.3-10.5c0.6-1,1.3-2,2-3
		c0.5-0.7,1-1.4,1.5-2.1c-0.9-0.9-1.8-0.7-2.6-0.4c-3,0.9-6,0.5-9,0.2c-3.5-0.4-7-0.1-10.5,0.1c-3,0.2-5.9,0-9.1-1
		c0.8-0.9,1.3-1.8,2-2.2c2.9-1.5,4.7-4,6.5-6.6c1.6-2.3,3.5-4,6-5.4c3-1.6,5.7-3.4,8.2-5.7c1.1-1,2.6-1.8,4.1-2.4
		c3.4-1.2,6.8-2.4,10.4-2.8c1.2-0.2,2.5-0.7,3.6-1.2c1.4-0.7,2.7-1.2,4.3-1.2c0.7,0,1.4-0.6,1.9-1.2c0.5-0.6,0.9-1.3,1.3-2
		c0.7-1.4,1.8-1.6,3.4-1.5c-0.2,1.1-0.4,2.1-0.5,2.7c-1,0.5-1.9,0.8-2.4,1.3c-1.5,1.7-3,3.4-4,5.3c-0.9,1.8-2.2,2.9-3.8,3.8
		c-1.6,1-2.6,2.4-3.7,4c0.4,0.3,0.7,0.7,1,0.7c3.3,0.6,6.5,1.8,9.9,1.2c0.8-0.1,1.7,0.2,2.5,0.5c4.2,1.4,8.3,2.9,12.5,4.2
		c1.3,0.4,2.8,0.5,4.4,0.7c-0.2,0.4-0.3,1-0.6,1.1c-3.1,1-5,3.6-7.6,5.3c-1.6,1.1-3.3,2.3-5,3.3c-1.3,0.7-2.4,1.5-3.2,2.8
		c-0.8,1.4-2,2.1-3.7,2.2c-0.9,0-1.9,0.4-2.6,0.9c-1.9,1.6-3.8,3.2-5.4,5c-2.5,2.8-5.3,5.1-8.6,6.8c-4,2-7.4,4.7-10.8,7.5
		C1080.7,636.6,1079,636.8,1076.7,637.3z M1065.6,606.8c0,0.2,0,0.4,0,0.5c0.9,0.2,1.8,0.5,2.7,0.5c1.7,0,3.3-0.2,5-0.3
		c3.3-0.2,6.7-0.6,10,0.3c2.2,0.6,4.3,0.2,6.4-0.1c0.9-0.1,1.7-0.5,2.6-0.6c1.2-0.1,2.4-0.1,3.1,1.5c-1.7,2.8-3.4,5.7-5.2,8.6
		c-1.8,2.9-3.5,5.9-5.4,8.7s-3.8,5.6-5.6,9c1.9-0.3,3-1.2,4-2.1c3.3-2.7,7-5,10.8-7.1c1.8-1,3.4-2.4,4.9-3.8
		c1.9-1.8,3.7-3.8,5.6-5.6c1.6-1.5,3.4-2.9,5.9-2.9c0.6,0,1.3-0.7,1.9-1.2c1-0.9,1.8-2.2,2.9-2.8c3.9-2.1,7.4-4.7,10.5-8
		c-0.5-0.3-1-0.5-1.5-0.7c-3.8-1.3-7.7-2.7-11.5-4c-0.7-0.2-1.4-0.5-2.1-0.4c-3.2,0.4-6.2-0.4-9.3-0.9c-1.4-0.2-2.7-0.7-3.9-1.8
		c0.4-0.6,0.6-1.2,1.1-1.7c1.8-1.7,3.6-3.4,5.4-5c1.2-1,2.7-3.5,2.9-5.1c-0.8,0.3-1.6,0.6-2.3,0.8c-1.4,0.5-2.8,1.2-4.3,1.6
		c-3,0.8-6.1,1.4-9,2.3c-2,0.6-4.1,1.1-5,3.3c-0.1,0.2-0.3,0.4-0.5,0.5c-2.5,1.5-5,3.2-7.6,4.5s-4.5,3.1-6.2,5.5
		C1070.2,602.9,1068.5,605.4,1065.6,606.8z"/>
	<path class="st0" d="M962,636c-0.7-0.1-1.3-0.1-1.6-0.3c-1.4-1.1-2.9-2.2-4.1-3.6c-1.9-2.1-3.6-4.5-5.5-6.7
		c-1.4-1.6-2.9-2.9-4.3-4.4c-3.4-3.8-6.8-7.7-10.2-11.4c-3.5-3.8-7.2-7.5-10.7-11.3c-1.1-1.2-2-2.5-3-3.7c-1.3-1.7-2.7-3.4-4-5
		c-0.5-0.7-1.1-1.3-1.9-2.4c1.2-0.2,2-0.5,2.8-0.5c3.9-0.1,7.8,0,11.7-0.1c1.7-0.1,3.4-0.5,5.3-0.7c0-1.4,0.1-2.6-0.1-3.8
		c-0.3-2.1-0.7-4.2-1-6.3c-0.1-0.8,0.1-1.7-0.8-2.4c-0.2-0.2,0.1-1.1,0.1-1.6c1.8-0.1,2.6,0.7,3.5,1.9c1.3,1.5,2.9,2.7,4.4,4
		c3.8,3.1,7.2,6.6,10.5,10.1c1.4,1.5,3,2.9,4.6,4.2c2.6,2.1,5.4,4,7.8,6.3c2.8,2.5,5.3,5.3,7.8,8.1c0.2,0.2,0.2,0.7,0.3,1.3
		c-1.8-0.2-3.3-0.3-4.5-1.6c-1-1-2.3-1.2-3.7-1.4c-2.2-0.4-4.3-1.2-6.3-2.1c-1.8-0.8-3.5-1.4-5.5-1.3c-2,0.1-3.7-0.7-5.4-1.7
		c-0.9-0.5-1.7-1.2-3-0.6c0.2,0.4,0.3,0.8,0.5,1c3.1,3.6,4.7,8.1,6.8,12.3c1.3,2.7,2.6,5.3,4,7.9c2.5,4.5,4,9.4,5.3,14.3
		C962.2,634.7,962.1,635.2,962,636z M941.9,596.6c1-0.1,1.7-0.4,2.2-0.3c1.5,0.4,3.2,0.6,4.5,1.4c2.1,1.2,4.1,2,6.6,1.7
		c1-0.1,2.1,0.2,3,0.6c3.3,1.9,6.9,2.9,11.1,3.5c-2-1.9-3.6-3.5-5.3-5c-3.5-3-7.1-5.9-10.6-9c-2.8-2.6-5.4-5.4-8.2-8
		c-2.6-2.4-5.3-4.7-8-7c-0.2,0.1-0.3,0.2-0.5,0.3c0.6,3.9,1.3,7.9,1.9,12.2c-3,0.2-5.8,1-8.8,0.9c-2.6-0.1-5.3-0.2-7.9-0.2
		c-0.8,0-1.5,0.2-2.6,0.4c1.5,2,2.7,3.7,4.1,5.4c2.3,2.7,4.5,5.6,7.1,8.1c3.6,3.6,7.1,7.3,10.2,11.4c1.3,1.6,2.8,3,4.2,4.6
		c3.1,3.4,6.2,6.9,9.3,10.3c1.8,2,3.2,4.3,6,5.4c-1-4.3-2.5-8.2-4.4-12s-3.8-7.5-5.6-11.4c-1.5-3.2-2.9-6.4-5.3-9.1
		C944.1,599.6,943.2,598.3,941.9,596.6z"/>
	<path class="st0" d="M1181.6,833.6c5.9-4.5,10-10.1,14.4-15.3c2-2.4,3.4-5.4,5-8.2c1.1-1.8,2.3-3.4,4-4.7c0.9-0.7,1.7-1.6,2.8-2.6
		c1.3,3.5,3.4,6.6,3.7,10.3c0,0.2,0,0.5,0.1,0.7c0.4,4.2,1.4,5.1,5.6,5.6c1.3,0.2,2.7,0.5,4,0.7c1.2,0.2,2.4,0.3,3.5,0.6
		c4.1,0.8,8.2,1.5,12.2,2.3c0.8,0.2,1.5,0.6,2.2,0.9c0.2,3.2-2,4.8-4,6.4c-0.8,0.6-1.8,1.2-2.3,2c-1.5,2.3-3.6,3.7-5.9,5.1
		c-1.8,1.1-3.5,2.3-5,3.7c-2.2,2-4.7,3.6-7.4,4.7c-0.9,0.4-1.9,1-2.6,1.7c-3.3,3.3-7.1,5.9-11.2,8.2c-1.7,1-3.3,2.2-4.8,3.5
		c-1.7,1.3-4.3,2.5-6.5,2.7c-0.3-1.3,0.5-2.2,1.3-2.9c2.1-1.8,2.9-4.3,3.9-6.8c0.3-0.8,0.8-1.6,1.3-2.2c1.2-1.6,2.4-3.2,3.7-4.7
		c1.6-1.9,3.1-3.8,4.7-5.7c0.3-0.4,0.6-0.8,1-1c2.6-1.4,3.3-4.2,4.8-6.7c-0.9,0-1.5-0.1-2.1,0c-2.2,0.4-4.4,0.9-6.6,1.2
		c-2,0.3-4.1,0.3-6.2,0.4c-1.9,0.1-3.8,0.3-5.7,0.4c-2.1,0.1-4.1,0.3-6.2,0.4C1182.8,834.4,1182.3,834,1181.6,833.6z M1207.3,806
		c-2,1.8-4.3,3.1-5.5,5.7c-3,6.3-7.6,11.3-12.3,16.3c-1.2,1.3-2.3,2.8-3.7,4.5c1.5,0.1,2.6,0.2,3.7,0.1c2.1-0.1,4.3-0.2,6.4-0.4
		c2.3-0.2,4.6-0.4,6.9-0.8c1.9-0.3,3.8-0.6,5.7-1c1.4-0.2,2.7-0.1,3.8,1.2c-2.2,2.8-3.1,6.4-6.3,8.3c-0.4,0.2-0.6,0.7-0.9,1.1
		c-2.4,3-4.7,6-7.2,8.9c-2.2,2.5-2.7,5.6-4,8.5c0.9-0.3,1.5-0.7,2.1-1.1c1.5-1,2.8-2,4.4-2.9c3.5-1.9,6.7-4.1,9.4-6.9
		c1.5-1.5,3.3-2.7,5.3-3.5c1.9-0.9,3.8-2,5.4-3.5c2.2-2,4.5-3.8,7.1-5.2c1.3-0.7,2.3-1.6,3.2-2.8c0.9-1.4,2.1-2.6,3.6-3.4
		c0.8-0.4,1.5-1.1,2.1-1.9c1.3-1.6,0.9-2.7-1.1-3.3c-0.6-0.2-1.2-0.3-1.9-0.4c-3.5-0.5-6.9-1-10.4-1.7c-4-0.8-8-1.7-12-2.6
		c-0.4-0.1-0.8-0.5-1.1-0.8C1211.2,815.7,1209.9,809.4,1207.3,806z"/>
	<path class="st0" d="M1504.7,428.1c-1.2-0.6-0.8-1.5-0.8-2.4c0.2-3,0.6-6.1,0.4-9.1c-0.3-5.7-3.3-9.9-7.7-13.2
		c-3.4-2.6-7.2-4-11.6-4c-1.1,0-2.1-0.1-1.9-1.6c7.1-2.3,13.1-6.1,18.4-11.3c1.2-1.2,2.4-2.3,3.5-3.6c1.1-1.2,1.5-2.6,1.2-4.4
		c-0.8-4,0.1-7.9,1.4-11.8c0.3-0.9,1-1.8,1.8-2.5c0.8-0.8,1.7-0.4,2,0.7c0.1,0.2,0.1,0.5,0.1,0.7c-0.3,4.5-0.2,9-2.4,13.1
		c-0.6,1.2-0.6,2.2-0.1,3.4c0.8,1.7,1.4,3.5,2.1,5.3c1.2,2.9,3.2,5.2,5.7,6.9c1.8,1.3,3.6,2.6,5.6,3.7c0.9,0.6,2,0.9,3.1,1.2
		c3.1,0.7,5.9,1.9,8.5,3.6c0.4,0.3,0.9,0.5,1.1,0.9c0.2,0.3,0.3,1,0.1,1.3c-0.2,0.2-0.8,0.3-1.2,0.2c-0.4-0.1-0.7-0.4-1-0.6
		c-0.5-0.3-1.1-0.7-1.6-1.1c-5.9-3.7-12.1-2.6-16.7,2.7c-4.3,4.8-7.1,10.3-8.5,16.6c-0.3,1.2-0.4,2.4-0.6,3.5
		C1505.4,427.2,1505,427.6,1504.7,428.1z M1521.4,400.1c-3.3-2.6-6.5-4.6-8.8-7.3c-2.3-2.7-3.5-6.3-5.2-9.5
		c-1.9,1.9-3.7,3.8-5.7,5.5c-1.9,1.7-3.8,3.4-5.9,4.8c-2.1,1.5-4.4,2.6-7,4.1c9.9,2.7,15.9,8.7,17.6,18.9
		C1509.8,409.5,1513.5,403.2,1521.4,400.1z M1507.9,377.1c1.1-3.1,2.4-6.2,1.5-9.6C1508,370.5,1507.6,373.7,1507.9,377.1z"/>
	<path class="st0" d="M1171.4,550.2c4.2,2.7,7.8,5.7,10.5,9.4c0.1,0.2,0,0.6,0,1.2c-4.2-0.7-7.7-3.4-12.1-4
		c1.1,5.3,1.2,10.6,0.6,16.5c-0.7-0.8-1.2-1-1.3-1.4c-0.5-4.2-2.5-7.7-4.8-11.1c-0.8-1.2-1.4-2.5-2.3-3.9c-0.6,0.2-1.2,0.4-1.8,0.7
		c-3.1,1.7-5.8,3.9-8.4,6.4c-0.9,0.9-1.9,1.6-2.7,2.4c-1.1-0.6-0.8-1.2-0.5-1.8c1.6-2.8,3.3-5.7,4.9-8.5c0.3-0.6,0.6-1.2,1.1-2.1
		c-4.4-2.3-8.9-3.7-13.6-5.7c0.7-0.5,1.1-0.8,1.5-1c0.4-0.1,1-0.1,1.4,0c4.7,1,9.4-0.5,14.1-0.5c0.3,0,0.6-0.2,0.9-0.4
		c-0.8-3.9-1.5-7.8-2.3-11.8c1.9,0.1,2.1,1.7,3,2.4c1,0.9,1.9,2,2.8,3c0.9,0.9,1.8,1.9,2.6,2.8c0.8,1,1.6,1.9,2.6,3.1
		c1.9-1.6,3.7-3,5.4-4.4c1.4-1.1,2.8-2.1,4.2-3.1c0.8-0.5,0.9-0.5,2.3,0c-1.5,1.9-3,3.7-4.3,5.6C1173.9,546,1172.7,548,1171.4,550.2
		z M1166.8,554.8c0.4-0.3,0.7-0.6,0.9-0.6c3.5,0.6,6.8,2.1,10,3.7c-2-3.2-5.3-4.9-8.4-6.8c0.9-2.9,2.8-5.2,4.1-7.7
		c-1.9,1.6-3.9,3.2-5.9,5c-2.6-3.3-5.2-6.3-8.2-9c0,3.1,0.8,5.8,2.3,8.7c-4.1,1.4-8.3,0.6-12.5,1.8c2.7,1.1,5.3,2.2,8.1,3.3
		c-1.3,2.3-2.5,4.5-3.8,6.6c0.1,0.1,0.2,0.2,0.4,0.2c2.7-1.8,5.4-3.5,8.4-5.5c2.5,3.6,4.4,7.4,7,11.4
		C1169.1,561.5,1168.6,558,1166.8,554.8z"/>
	<path class="st0" d="M1345.8,875.7c0.9,1.2,1.7,2.4,2.7,3.8c-1.7,0.5-2.3-0.6-3.1-1.5c-1-1.2-1.8-2.4-2.9-3.5
		c-0.9-0.9-1.8-1.8-2.9-2.5c-3.9-2.6-7.3-5.6-10.2-9.3c-3.3-4.3-6.9-8.3-10.5-12.5c-1.2-1.4-2-3-2.5-4.9c-1-4.2-1.9-8.4-0.7-12.7
		c0.7-2.5,2.1-4.5,4.1-6c2.2-1.8,4.8-2.1,7.5-1.3c4.5,1.5,8.4,3.9,10.2,8.6c0.2,0.5,0.6,0.9,1.1,1.5c0.3-0.6,0.7-0.9,0.8-1.3
		c0.6-3,2.4-5.2,4.7-7c2.8-2.3,5.5-4.9,8.6-6.8c5-3.2,10.2-2.2,15.3,0.2c0.3,0.1,0.6,0.3,0.8,0.6c1.8,2.5,3.7,5,5.3,7.7
		c0.5,0.8,0.6,2.1,0.3,3c-1,3.5-2.1,7-4.3,10.1c-1,1.5-2.3,2.9-3.8,3.9c-5.7,3.8-10,9.1-14.5,14.2c-0.8,0.9-1.4,2.2-1.7,3.4
		c-1.1,3.6-2.5,7.1-2.6,10.9C1347.5,875.2,1347,876,1345.8,875.7c0.1-1,0.3-2,0.4-3c1-6,2.2-11.9,6.8-16.4c4-4,7.6-8.4,12.4-11.6
		c1.7-1.1,3.3-2.6,4.2-4.5c1.3-2.9,2.5-5.9,3.5-8.9c0.2-0.7-0.1-1.8-0.5-2.5c-1.5-2.3-3.1-4.5-4.7-6.6c-0.2-0.3-0.6-0.6-1-0.7
		c-4.2-1.7-8.4-2.7-12.7-0.5c-1.3,0.7-2.6,1.6-3.8,2.5c-1.7,1.3-3.2,2.9-4.9,4.2c-2.9,2.1-4.6,4.8-5.2,8.3c-0.2,0.9-0.3,1.7-0.6,2.6
		c-0.3,1.1-1.1,1.2-2.3,0.6c1.4-0.9,0.9-1.8,0.3-2.7c-0.5-0.8-1.2-1.6-1.5-2.4c-1.8-4.2-5.5-6.1-9.5-7.4c-2.7-0.8-5.2-0.2-7.1,2.1
		c-1.6,1.9-2.8,4-2.9,6.4c-0.3,6.2,0.6,12,5.3,16.8c2.6,2.6,4.8,5.6,7.1,8.4c2.8,3.4,5.6,6.7,9.2,9.3
		C1341,871.5,1343.3,873.7,1345.8,875.7z"/>
	<path class="st0" d="M1092,703.9c0-3.4,2.2-5.7,4.3-7.7c2.2-2.1,4.7-3.5,8-3.7c6-0.2,10.8,2.6,15.4,5.7c3.6,2.4,4.7,7.3,2.6,11.4
		c-1.8,3.6-4,7.1-6.1,10.5c-0.7,1.1-1.9,2-2.9,2.8c-1.6,1.3-3.3,2.5-4.9,3.8c-1.7,1.3-2.8,3-3.5,5c-0.6,1.7-1.5,3.2-2.8,4.3
		c-0.2,0.2-0.5,0.4-0.7,0.7c-1.4,1.5-3,2.9-2.6,5.3c-1.3,0.5-2-0.4-2.5-1.1c-2.3-3-5.5-5-8.3-7.5c-0.7-0.6-1.4-1.1-1.9-1.8
		c-4.8-5.6-9-11.6-11.5-18.6c-0.4-1.3-0.6-2.6-0.8-4c-0.2-1.5-0.3-3-0.4-4.5c-0.2-2.9,1.6-6,4.3-7.1c2.6-1.1,5.3-2.2,8-0.6
		c2.4,1.5,4.6,3.3,5.4,6.2c0.1,0.3,0.2,0.6,0.3,0.9C1091.6,703.9,1091.8,703.9,1092,703.9z M1097.2,739.1c1.2-1.3,2.5-2.4,3.5-3.7
		c1-1.2,2.2-2.4,2.7-3.9c1.3-3.6,3.8-6.2,6.8-8.1c2.8-1.8,5.2-4,6.8-6.9c1.7-3.1,3.8-6.1,4.6-9.7c0.7-3.3-0.2-6.1-3-7.8
		c-2.4-1.5-4.9-3-7.5-4.1c-2.9-1.2-6.2-0.3-9.3-0.7c-3.9,1.7-6.7,4.4-8.2,8.5c-1,2.7-0.4,5.4-0.1,8c0.1,1,0.1,1.9,1,2.6
		c0.6,0.5,0.7,1.2,0,1.9c-1.3-0.6-2-1.6-2.2-2.9c-0.3-1.3-0.3-2.7-0.7-4c-1-3.3-2-6.5-4.6-9.2c-3.2-3.4-10.9-0.4-11.7,3
		c-0.1,0.3-0.2,0.6-0.2,0.9c0.2,2.8,0.1,5.6,0.7,8.3c1.2,4.7,3.5,9.1,6.6,12.9c2.6,3.3,4.7,7.1,8.5,9.3c0.3,0.2,0.4,0.5,0.7,0.7
		C1093.3,735.9,1095.3,737.5,1097.2,739.1z"/>
	<path class="st0" d="M1000,560.4c-0.4-1-0.9-1.7-1-2.4c-1.2-7.4-2.3-14.8-3.5-22.2c-0.7-4.2-1.5-8.5-2.3-12.7
		c-0.4-2.2,0.1-4.3,0.6-6.4c1.3-5.4,8-8.4,12.7-7.4c2.5,0.5,3.9,2,4.2,4.9c0.3,2.2,0.2,4.4,0.4,6.9c0.5-0.5,1-0.9,1.5-1.2
		c1.7-1.4,3.4-3,5.3-4.1c1.5-0.9,3.4-1.2,5.2-1.5c2.2-0.3,3.1,0.6,3.3,2.8c0.2,1.6,0.1,3.2,0,4.8c-0.8,7.4-3.5,14-8.8,19.5
		c-1.9,2-3.5,4.1-5.2,6.2c-2.2,2.6-4.5,5.2-7.5,6.9c-1.9,1.1-3.6,2.4-3.8,4.8C1000.8,559.6,1000.6,559.7,1000,560.4z M1000.7,555.4
		c1.2-0.9,2-1.7,2.9-2.1c3.4-1.7,5.8-4.5,8.1-7.3c1.3-1.6,2.6-3.3,4-4.7c4.3-4.4,7.2-9.6,8.5-15.5c0.6-2.6,1.2-5.3,0.6-8
		c-0.2-1.1-0.7-1.8-1.9-1.6c-1.3,0.2-2.8,0.3-3.9,1c-2.2,1.5-4.3,3.2-6.3,5c-1.6,1.4-2.5,3.3-2.6,5.5c0,0.5-0.2,1.1-0.4,1.6
		c-0.2,0.7-0.7,1.4-1.5,1c-0.3-0.2-0.5-1.2-0.3-1.6c1.7-3.8,1.3-7.8,1.6-11.8c0.1-1.1-0.3-2.2-0.7-3.3c-0.5-1.6-1.7-2.5-3.4-2.6
		c-3.5-0.2-9.8,1.7-10.4,7.2c-0.2,1.9-0.4,3.8-0.3,5.7c0.1,1.2,0.8,2.4,1,3.6c1.1,6,2,11.9,3.1,17.9
		C999.4,548.4,1000,551.7,1000.7,555.4z"/>
	<path class="st0" d="M1238.7,656.3c0.2,1.3-0.5,2.4-1,3.5s-1.1,2.3-1.4,3.5c-1.5,4.9-2.1,10-1.7,15.2c0.3,3,1.1,5.9,1.8,8.9
		c0.3,1.4,0.9,2.7,1.3,4.1c0.5,1.8,0.6,3.8,2.4,5.1c-1.4,1.4-2.5,2.6-3.8,3.6c-3.4,2.9-6.3,6.3-8.7,10.2c-1.4,2.3-3,4.3-4.4,6.5
		c-1.2,1.8-2.2,3.7-3.2,5.6c-1.5,2.9-2.8,5.9-4.3,8.8c-0.4,0.8-0.7,1.9-2.3,1.7c0.2-0.8,0.4-1.4,0.6-2c1.1-2.4,2.5-4.7,3.4-7.1
		c1.6-4.3,2.9-8.8,4.3-13.2c0.2-0.6,0.2-1.3,0.2-1.9c0.3-8.4-0.5-16.7-3.1-24.8c-0.4-1.3-0.3-2.4,0.3-3.7c2-4.8,5.6-8.5,9-12.3
		c2.2-2.5,4.7-4.8,6.9-7.3c0.7-0.8,1.3-1.8,1.9-2.8c0.4-0.6,0.8-1.3,1.2-2C1238.3,656.1,1238.5,656.2,1238.7,656.3z M1222.1,715.3
		c0.1,0.1,0.2,0.1,0.3,0.2c1.3-2,2.7-3.9,3.9-5.9c1.7-2.7,3.5-5.3,5.8-7.5c1.5-1.4,2.9-2.7,4.3-4.1c0.6-0.5,1.2-1.1,0.9-2.1
		c-0.7-2.4-1.3-4.8-2.1-7.1c-2.4-6.4-2.9-13-1.8-19.8c0.1-0.8,0.2-1.7,0.3-2.4c-1.5-0.7-2.3,0.1-2.9,0.8c-2,2.2-4.1,4.3-5.9,6.6
		c-1.6,2.1-3,4.5-4.4,6.8c-0.6,0.9-0.5,1.9-0.1,3c2.6,8.1,3.4,16.4,3,24.8C1223.3,710.8,1222.5,713,1222.1,715.3z"/>
	<path class="st0" d="M1376.8,443.5c-0.4-1.3-0.7-2.2-0.9-3.1c-1.1-4.3-2-8.6-3.2-12.8c-0.9-3.1-2-6.1-3.2-9c-0.5-1.2-1.2-2.3-2-3.3
		c-1-1.4-1.7-2.8-1.2-4.6c0.1-0.5-0.3-1.2-0.6-1.7c-0.9-1.7-1.9-3.3-2.7-5c-1.3-2.7,0.2-4.8,1.8-6.7c1.6-1.9,3.7-2.2,5.9-1.3
		c1.6,0.7,3,1.7,4.6,2.7c0.2-0.6,0.4-1.2,0.6-1.9c0.8-1.9,1.6-3.8,2.6-5.6c1.1-2,2.8-2.5,4.7-1.3c2.9,1.8,5.2,4,5.5,7.7
		c0,0.2,0,0.3,0,0.5c1.2,4.5,0.2,8.5-1.6,12.8c-3.5,8.2-6.4,16.7-8.2,25.5c-0.3,1.4-0.4,2.8-0.6,4.3
		C1378.3,441.6,1378.1,442.5,1376.8,443.5z M1377,438.2c0.5-2.4,0.8-4.4,1.4-6.3c2.4-7.4,4.6-15,7.6-22.2c1.6-3.9,2.2-7.5,1.3-11.5
		c0-0.1,0-0.2,0-0.2c-0.2-2.9-1.9-4.9-4.1-6.4c-1.5-1-2.3-0.8-3.5,0.6c-2,2.6-2.7,5.5-2.7,8.7c0,1.2,0.3,2.4-1.3,3.1
		c-0.2-0.4-0.6-0.8-0.7-1.2c-0.4-2.8-2.3-4.3-4.8-5.2c-3.3-1.2-6.2,1.1-5.9,4.2c1.2,1.2,2.3,2,3,3.1c0.9,1.6,1.6,3.3,2.2,5
		c0.6,1.5,1,3,1.4,4.6c0.1,0.3,0.1,0.8,0,0.9c-1.3,1-0.4,2,0,3c2.3,5.7,4.2,11.5,5.3,17.6C1376.5,436.5,1376.7,437.1,1377,438.2z"/>
	<path class="st0" d="M1455.4,782.7c0.8-0.5,1.4-1,2.1-1.4c1.6-0.8,3.1-1.8,4.7-2.2c5-1.5,10.3,1,10.5,7.7c0.1,3.4-0.7,6.6-3.7,8.6
		c-1.8,1.3-3.8,2.4-5.7,3.4c-0.4,0.2-1.1,0.3-1.6,0.1c-1.5-0.6-2.8-0.3-4.2,0.2c-5.5,1.8-10.5,4.4-13.9,9.2c-1.4,1.9-2.3,4-3.5,6
		c-0.9,1.6-1.8,3.2-2.7,4.8c-0.2,0.4-0.6,0.7-0.9,1c-1.1-0.6-0.7-1.4-0.4-2.1c1-3,2-6.1,2.8-9.1c0.5-1.7,0.7-3.4,0.9-5.2
		c0.3-1.9,0.5-3.8,0.6-5.7c0.1-1.2,0.1-2.4-0.1-3.6c-0.5-3.2-1.1-6.4-1.8-9.6c-0.5-2.6-0.3-4.9,1.6-6.9c0.5-0.6,1.2-1.1,1.9-1.5
		c2.2-1.1,4.6-1.3,7-0.7c2.6,0.5,4.5,2,5.4,4.6C1454.7,781,1455,781.8,1455.4,782.7z M1440.9,808.8c2.6-4.1,6.3-6.7,10.3-8.8
		c3.3-1.7,6.7-3.5,10.6-2.9c0.6,0.1,1.2-0.2,1.8-0.5c0.8-0.4,1.5-0.8,2.3-1.2c3.7-1.8,5.3-4.6,5.1-8.7c-0.3-4.4-3.6-6.9-7.9-6
		c-3.8,0.9-6.9,2.8-8.9,6.3c-0.6,1-1,2.2-2.4,2.3c-0.2-1.3-0.2-1.4,0.5-2.4c1.4-2.1,1.6-4.2,0.4-6.5s-3.3-3.3-5.7-3.3
		c-1.3,0-2.7,0.3-4,0.7c-2.6,0.9-3.7,3.2-3.2,6.5c0.2,1.4,0.6,2.8,1,4.2c0.3,1.1,0.7,2.1,1.1,3.2c0.1,0,0.2,0,0.3-0.1
		C1441.9,797.2,1441.4,803,1440.9,808.8z"/>
	<path class="st0" d="M1314.4,597.7c1-1.4,1.9-2.8,2.9-4.2c1.4-1.9,3-3.8,5.3-4.7c2.9-1.2,5.9,0.2,7,3.1c0.6,1.7,0.8,3.4,0.4,5.2
		c-1.3,6.1-2.7,12.2-4,18.2c-1.4,6.3-3,12.6-3.4,19.1c-0.1,1.7-0.5,3.3-0.8,5c-0.1,0.4-0.4,0.8-0.9,1.7c-0.6-1.9-1.2-3.2-1.5-4.6
		c-0.5-2.5-1.7-4.6-2.8-6.8c-3.7-7.6-9.3-13.9-14.2-20.7c-0.3-0.4-0.7-1.1-1.1-1.2c-1.8-0.3-1.7-1.7-1.7-2.9
		c-0.2-3.8,0.3-7.5,2.5-10.8c0.4-0.7,0.9-1.3,1.5-1.9c2.6-2.7,6.3-2.6,8.4,0.5C1312.9,594.1,1313.5,595.8,1314.4,597.7z M1321,634.3
		c0.1-0.3,0.1-0.6,0.2-0.9c1-5.8,2-11.6,3.2-17.4c1.3-6.2,2.8-12.3,4.2-18.4c0.2-1.1,0.3-2.4,0-3.5c-0.8-4.2-4.4-5.4-7.4-2.5
		c-3.5,3.3-6.5,7.1-6.9,12.2c0,0.5-0.4,0.9-0.6,1.3c-0.2,0-0.4,0-0.5,0c-0.1-0.6-0.4-1.3-0.4-2c-0.1-1.1,0-2.2,0-3.4
		c0-2.1-0.5-4.1-1.8-5.9c-1.8-2.4-4.4-2.6-6.5-0.5c-0.3,0.3-0.6,0.7-0.9,1.1c-1.6,2.3-2.3,4.8-2.6,7.6c-0.2,2,0.2,3.4,1.6,4.9
		c3.8,4.5,7.3,9.3,10.9,13.9c0.8,1,1.4,2.1,2,3.2C1317.3,627.5,1319.1,630.9,1321,634.3z"/>
	<path class="st0" d="M899.2,475.1c0.9-0.4,1.5-0.6,2-0.8c3.2-0.8,6.5-1.6,9.7-2.4c0.6-0.2,1.2-0.4,1.8-0.7
		c8.2-4.7,15.9-10.1,22.4-17c0.8-0.8,1.4-1.8,2.1-2.6c0.5-0.6,1.1-1.2,1.7-1.7c0.2-0.1,0.7-0.1,0.8,0.1c0.2,0.2,0.3,0.6,0.2,0.8
		c0,0.3-0.3,0.6-0.5,0.8c-3.1,4.1-4.7,8.8-5.6,13.8c-0.5,2.9-1.1,5.8-1.5,8.7c-0.3,2.4-0.3,4.8-0.3,7.2c0,2.8,0.3,5.6,0.3,8.4
		c0,0.5-0.2,1-0.4,2c-0.6-0.7-1-1-1.2-1.4c-1.7-4.2-3.4-8.4-5.1-12.6c-0.9-2.3-0.9-2.2-3.3-1.8c-4.5,0.7-9,1.3-13.5,1.8
		c-0.5,0.1-1.1,0-1.7-0.1c-2.3-0.5-4.6-1.1-6.9-1.7C900.1,475.8,899.9,475.6,899.2,475.1z M906.8,475c0,0.2,0.1,0.4,0.1,0.6
		c1.4,0,2.9,0.1,4.3,0c4.2-0.5,8.4-1.2,12.5-1.8c1.8-0.3,2-0.2,2.7,1.5s1.3,3.4,2,5.1c0.5,1.3,1.1,2.6,1.7,3.8
		c-0.6-8.8,2.1-17.1,3.4-25.8c-0.5,0.4-0.8,0.6-1.1,0.8c-2.6,2.1-5.1,4.4-7.7,6.4c-4.8,3.5-9.7,7-15.5,8.7
		C908.4,474.5,907.6,474.8,906.8,475z"/>
	<path class="st0" d="M1175.5,502.5c0.1-0.5,0.1-1,0.3-1.4c0.8-1.5,1.1-3.1,1-4.9c-0.2-3,1.2-5.1,3.2-7.1c2.4-2.4,5.3-3.8,8-5.5
		c2.4-1.5,4.7-3.3,7-5c1.1-0.8,1.4-1.9,1.2-3.2c-0.1-0.6-0.2-1.3-0.4-1.9c-1-2.6-2.1-5.2-2.9-7.8c-0.5-1.7-1.7-2.2-3.2-2.4
		c-1.1-0.1-2.2,0-3.3,0.3c-4.1,1.1-8.5,4.7-8.6,9.4c0,0.2,0,0.3-0.1,0.5c-0.4,2.6-0.8,2.9-3.9,2.2c1.7-1,2.4-2.3,2.4-4
		c0-0.6,0-1.1-0.1-1.6c-1.5-4-3.9-7.1-8.3-8.2c-5.1-1.2-9.1,1.1-10.7,6.1c-2.3,7.2,0,13.2,4.3,18.8c1.5,1.9,3.4,3.6,5,5.5
		c1.9,2.3,3.6,4.8,5.5,7.2c0.6,0.8,1.3,1.7,2.2,2.8c-0.2,0.7-0.5,1.8-0.7,2.9c-1.1,0.1-1.3-0.5-1.4-1.1c-0.8-4.5-3.5-7.8-6.4-11
		c-2.2-2.5-4.5-4.9-6.6-7.5c-1-1.2-1.6-2.8-2.3-4.2c-2.5-5-2-10.1-0.3-15.2c1.2-3.7,6.2-7,10.6-6c3.7,0.9,6.9,2.5,8.7,6.1
		c0.4,0.8,0.9,1.7,1.5,2.7c0.3-0.3,0.6-0.6,0.8-0.8c2.5-3.7,6.2-5.8,10.6-6.2c2.5-0.2,4.6,0.8,5.7,3.5c1.2,2.9,2.2,5.8,3.1,8.8
		c0.9,2.8,0.1,4.4-2.3,6.1c-3.4,2.4-6.7,4.8-10.4,6.9c-2.1,1.2-3.8,3.1-5.4,5c-1.2,1.3-1.3,3.2-1.1,5c0.3,2.2-0.8,3.9-1.9,5.6
		C1176,502.6,1175.8,502.6,1175.5,502.5z"/>
	<path class="st0" d="M1003.2,421.3c-0.9-0.1-1.8-0.3-2.2-0.3c-1.8-2.5-3.3-4.7-4.9-6.9c-0.3-0.4-0.7-1.2-0.5-1.5
		c0.9-1.2,0.1-2-0.5-2.8c-1.9-2.9-3.6-5.8-4.5-9.2c-1-3.9-0.4-7.2,2.7-10c2.9-2.5,6.8-2.5,9.4,0.2c0.9,0.9,1.6,2,2.3,2.9
		c1.8-1.2,3.7-2.5,5.5-3.6c0.4-0.3,0.9-0.4,1.3-0.5c3.1-0.9,5.7,0.8,5.9,4c0.1,1.7,0.1,3.4-0.4,5c-0.7,2.6-1,5.4-3,7.5
		c-0.6,0.6-1.1,1.4-2.2,0.6c-0.3-0.2-1.2,0.1-1.6,0.5c-1.2,0.9-1.8,2.6-3.7,2.8c-1.7,3-3.5,5.9-5,9
		C1001.9,419.4,1002.8,420.4,1003.2,421.3z M1003.9,411.1c0.9-0.9,1.7-1.7,2.5-2.6c1.9-2.1,3.8-4.4,7-4.5c0.4,0,0.9-0.4,1.1-0.8
		c1.5-2.9,2.5-5.9,2.1-9.2c-0.4-2.6-2.3-3.8-4.7-2.8c-3.3,1.3-6,3.4-6.4,7.3c-0.1,0.6-0.1,1.3-0.3,1.9c-0.2,0.8-0.7,1.4-2,1
		c0.2-1.2,0.4-2.3,0.7-3.5c0.6-2.6-0.8-5.7-3-6.9c-2.3-1.3-4.9-0.8-6.8,1c-3.7,3.5-2.5,7.9-0.7,12.2c0.7,1.7,1.8,3.1,2.7,4.7
		c1.6,2.8,3.2,5.6,5,8.8c1.2-2.2,2.3-4.1,3.2-5.9C1004.4,411.6,1004,411.2,1003.9,411.1z"/>
	<path class="st0" d="M899.7,814.3c-1.5-0.8-2.5-1.2-3.4-1.7c-5.2-3.3-10.8-5.5-16.8-7.2c-3.1,4.2-7,7.7-9.3,12.4
		c-0.8,1.6-2.2,2.6-4,2.9c0.7-1.1,1.2-2.1,1.8-2.9c1.5-1.9,2.3-4.1,2.8-6.5c1.6-7.5,4.2-14.7,6.8-21.9c0.1-0.2,0.3-0.4,0.6-0.7
		c0.4,0.3,0.8,0.5,1,0.8c1,1.9,2.5,3.2,4.2,4.5c2.9,2.3,5.8,4.8,7.5,8.2c0.8,1.5,1.7,2.9,2.6,4.3c1,1.7,2.3,3.3,4,4.3
		c0.6,0.4,1.2,0.8,1.6,1.4C899.5,812.6,899.5,813.2,899.7,814.3z M878.9,792.6c-1.7,1.5-1.9,3.8-2.7,5.7c-0.7,1.9-1.3,3.9-1.8,6
		c-0.5,2-1.8,3.8-1.3,6.1c1.7-1.8,3.3-3.7,4.7-5.7c0.8-1.1,1.4-1.5,2.7-1c3.3,1.3,6.7,2.5,10.1,3.7c0.5,0.2,0.9,0.3,1.6,0.5
		C888,799.7,889.8,801.2,878.9,792.6z"/>
	<path class="st0" d="M1290,508.9c2.5,0.5,3.4-1.3,4.3-2.6c1.7-2.2,3.1-4.6,4.3-7.1c0.6-1.2,0.8-2.8,0.8-4.1c0-2.4,0.3-4.8,1.3-7
		c0.3-0.6,0.7-1.3,1.2-1.8c0.3-0.3,0.9-0.5,1.2-0.4c0.3,0.2,0.6,0.8,0.6,1.2c-0.2,1.3-0.7,2.6-1,3.9c-0.5,2-1.1,4-1.3,6.1
		c-0.3,3.2,0.2,6.4,1.6,9.3c0.7,1.4,1.3,2.9,2.1,4.3c0.6,1.1,1.6,2,2.4,2.9c0.4,0.5,0.9,1,1.5,1.6c-0.7,0.3-1,0.5-1.2,0.4
		c-2.4-1.1-4.9-0.5-7.3-0.1c-3.2,0.6-5.6,2.4-6.6,5.8c-0.7,2.4-1.6,4.7-2.5,7c-0.4,1.1-0.5,1.1-2,1.8c0.1-0.8,0.1-1.4,0.3-1.9
		c0.4-1.1,0.8-2.1,1.3-3.1c1.5-3.5,1.7-7.1,0.6-10.7C1291,512.7,1290.5,511,1290,508.9z M1293.8,517c1.8-1,3.3-2,5-2.8
		s3.8-0.1,5.7-1.4c-1-1.9-2-3.7-2.8-5.6s-1.3-3.8-2-5.9c-1.2,1.7-2.2,3.4-3.4,4.9c-1.2,1.5-2.6,2.9-4,4.4
		C1292.7,512.7,1293.2,514.8,1293.8,517z"/>
	<path class="st0" d="M1251.9,799c0.4-1.5,0.8-2.9,1.2-4.4c0.6-2.5,1.2-5.1,1.9-7.6c0.3-1.1,0.7-2.1,1.2-3.1
		c0.5-1.3,1.1-2.6,1.7-3.9c0.3-0.6,0.7-1.1,1.3-1.9c0.6,0.8,1,1.2,1.4,1.7c2.8,4.1,4.3,8.7,5.7,13.4c0.1,0.3,0.2,0.6,0.3,0.9
		c0.9,2.8,1.4,3,4.2,2.1c2.2-0.7,5.4-0.9,8.8-0.4c0.2,1.2-0.5,2.1-1.2,3c-0.5,0.7-1.1,1.4-1.6,2.1c-1.4,1.9-2.6,3.8-2.4,6.3
		c0,0.1,0,0.3-0.1,0.5c-1.3,2-2.6,3.9-4,6.1c-0.6-0.6-1-0.8-1.2-1.2c-2.4-3-4.7-6.1-7.1-9c-0.7-0.9-1.8-1.6-2.8-2.2
		c-1.3-0.9-2.7-1.2-4.3-0.4c-2,1-3.5,0.1-4-2.3C1251.1,798.7,1251.5,798.8,1251.9,799c0.9,0,1.9,0.3,2.8,0.1c2.2-0.5,4.2,0,5.8,1.4
		c1.6,1.3,3,2.8,4.4,4.4c1.7,2,3.2,4.1,4.9,6.3c0.6-0.7,1-1.4,1.5-1.9c1.3-1.2,1.9-2.7,1.9-4.5c0-1,0.6-2.1,1.2-3c0.9-1.6,2-3,3-4.6
		c-5-0.5-7.6,0.3-9.7,2.6c-0.9-0.6-1.8-1.2-3-1.9c1.6-1.3,0.6-2.6,0.2-3.9c-0.7-2.5-1.5-5-2.4-7.5c-0.7-1.8-1.5-3.6-3.2-5.4
		c-1,2.2-2.2,4-2.8,6c-1,3.2-1.6,6.5-2.5,9.7C1253.7,797.8,1253.3,798.9,1251.9,799z"/>
	<path class="st0" d="M1138.9,829.2c-1.4-0.3-1.3-1.2-1.4-2c-1-4.8-2.9-9.3-5.8-13.3c-0.6-0.9-1.4-1.4-2.4-1.8
		c-2.1-0.8-4.1-1.8-5.4-3.8c-1.6-2.5-0.4-5.1,2.6-5.4c0.8-0.1,1.6,0,2,0.1c1.1-1.3,1.9-2.4,3-3.3c1.5-1.3,3.3-1.2,4.9-0.1
		c0.9,0.6,1.7,1.5,2.5,2.2c1.6,1.5,3.2,2.9,4.8,4.5c-0.6,1.8-1.3,3.5-1.9,5.3c-0.8,2.6-1.5,5.2-2.2,7.8c-0.6,2.4-1,4.8-0.5,7.3
		C1139.3,827.5,1139,828.4,1138.9,829.2z M1137.5,820.4c1.3-4.4,2.7-8.7,3.9-13c0.1-0.4,0-1-0.3-1.3c-1.7-1.7-3.3-3.4-5.2-5
		c-1.5-1.3-2.9-1.1-4.3,0.1c-1.2,1-1.4,2.5-0.6,4.1c0.1,0.3,0.5,0.5,0.5,0.8c0.1,0.5-0.1,1-0.1,1.5c-0.5-0.2-1-0.3-1.4-0.7
		c-0.5-0.5-0.7-1.3-1.2-1.8c-0.8-1-2.7-1.1-3.7-0.2c-0.9,0.8-1,1.9,0.2,2.9c1.3,1.1,2.9,2.1,4.5,2.6c1.2,0.4,2.1,0.7,2.8,1.9
		C1134.2,815.1,1135.9,817.7,1137.5,820.4z"/>
	<path class="st0" d="M1245.6,369.4c-1.5,0.8-2.8-0.3-4.2-0.7c-1.5-0.4-2.9-0.8-4.6-1.3c-0.7,1.9-1.4,3.7-2.1,5.4
		c-1,2.5-1.7,5-1,7.7c0.2,0.6,0.2,1.3-0.9,1.7c-2.5-6.5-5.4-12.8-9.3-18.6c0.2-0.3,0.3-0.6,0.6-0.8c3.8-3.2,8-5.8,12.7-7.4
		c1-0.3,1.6,0.1,2.1,0.7c1.1,1.5,2.3,2.9,3.1,4.5c1.4,2.7,2.5,5.5,3.7,8.3C1245.8,369,1245.7,369.1,1245.6,369.4z M1237.7,357.1
		c-4.8,1-8.6,3.3-12.1,6.4c1.2,2.1,2.2,4.1,3.3,6c1.1,1.9,1.7,4,3.3,6c1.2-3.5,2.3-6.6,3.5-10.1c2.3,0.6,4.7,1.2,7.2,1.8
		C1241.8,363.4,1240.3,360,1237.7,357.1z"/>
	<path class="st0" d="M1081.3,426.5c0.7-0.7,1.5-1.2,2-2c0.8-1.2,1.4-2.5,2.1-3.8c0.2-0.4,0.7-0.7,1.3-1.4c0.1,0.9,0.2,1.3,0.1,1.7
		c-0.5,2.2-1.2,4.5-1.6,6.7c-0.2,1.1-0.2,2.2,0.1,3.3c0.5,1.8,1.2,3.6,1.9,5.4c1.3,3.1,3.5,5.3,6.5,6.6c-0.1,0.3-0.1,0.7-0.2,0.8
		c-2,1.6-3,3.7-3.5,6.1c-0.5,2-0.9,4-1.2,6.1c-0.2,1.1-0.1,1.1-1.5,2.2c-0.1-1.4-0.2-2.6-0.3-3.8c0-0.3-0.1-0.6,0-1
		c0.2-5.3-2.5-8.9-6.7-11.6c-1.9-1.3-2.2-1.6-1.7-3.9c0.8-3.8,1.5-7.6,2.3-11.4C1081.1,426.5,1081.2,426.5,1081.3,426.5z
		 M1084,426.2c-1,1.7-2.1,3-2.5,4.5c-0.7,2.4-1,5-1.5,7.5c-0.2,1.2,0.3,1.9,1.3,2.6c3.5,2.2,6.3,5.1,7,9.6c1-2.4,2-4.5,3-6.7
		C1085.8,438.3,1083.1,432.1,1084,426.2z"/>
	<path class="st0" d="M1551,628.4c-0.1-0.7-0.2-1.5-0.3-2.2c-0.2-4-0.5-8-0.6-11.9c0-2-0.2-4.2,1.2-5.9c0.3-0.4,0.6-0.9,1-1
		c1.8-0.3,3.7-0.7,5.5-0.7c1.2,0,2,1.1,2.2,2.2c0.3,2,0.4,4-1,5.7c-2.6,3.4-4.1,7.4-5.8,11.2c-0.4,0.9-0.9,1.8-1.3,2.7
		C1551.6,628.4,1551.3,628.4,1551,628.4z M1554.6,611.9c-0.3,0-0.5,0-0.8,0c-0.2-1-0.4-2-0.5-3.1c-1.8,1.3-2.2,2.6-1.6,4.6
		c0.2,0.9,0.4,1.8,0.4,2.7c0.1,2.4,0.1,4.7,0.1,7.1c0.6-0.2,0.8-0.4,0.9-0.7c0.9-3.3,2.6-6.2,4.6-8.9c0.9-1.3,1-2.7,0.8-4.1
		c-0.1-1.5-1.4-2-2.5-0.9c-0.5,0.4-0.6,1.2-0.9,1.8C1555,610.9,1554.8,611.4,1554.6,611.9z"/>
	<path class="st0" d="M1069.7,820.9c-1.7,1.3-3,2.3-4.4,3.3c-5.1,3.9-10,7.9-15.2,11.6c-4,2.7-7.8,5.6-11,9.2
		c-1.4,1.6-3.2,2.6-5.3,3.1c-2.4,0.6-4.4,1.8-6.2,3.4c-1.1,1-2.2,2.1-4.1,2c-0.1-1.1-0.3-2.2-0.3-3.3c-0.1-4.7-0.1-9.4-0.1-14.1
		c0-1,0-1.9-0.2-2.9c-0.7-4.4-0.2-8.7,0.6-13.1c0.4-2.3,0.4-4.8,0.6-7.2c0.1-0.9,0.2-1.9,0.4-3c4.5,0.5,8.9-0.1,13.2,1.3
		c4.8,1.6,9.6,3,14.4,4.3c1.8,0.5,3.6,0.6,5.4,0.8C1061.7,816.8,1065.4,819,1069.7,820.9z"/>
	<path class="st0" d="M931.2,691.7c-3.2-0.3-6.3-0.7-9.5-0.9c-1.3-0.1-2.5,0.1-3.8,0.3c-2.8,0.3-5.5,1.2-8.3,0.7c-0.2,0-0.5,0-0.7,0
		c-3,0.4-5.9,0.8-9,1.2c0.2,1.7,1.3,2.9,2.2,4.2c3.3,4.7,6.8,9.2,10,14c1.8,2.7,3.1,5.8,4.7,8.6c2.9,5,5.9,10.1,7.9,15.6
		c0.2,0.7,0.6,1.3,1,1.9c2.3,4,4.5,8,6.5,12.4c-0.4-0.2-0.8-0.3-1.1-0.5s-0.6-0.6-1-0.7c-3.2-0.9-5-3.5-7.4-5.5
		c-2.2-2-4.6-3.7-6.9-5.6c-3.9-3.3-7.9-6.5-11.7-9.9c-8.5-7.7-17.2-15.2-26.7-21.8c-3.3-2.3-6.4-5-9.7-7.5c-0.8-0.6-1.7-1.1-2.6-1.7
		c-1.5-1-3-2-4.5-3.1c0.2-0.6,0.2-0.9,0.4-1.1c2.9-2.7,6.1-4.8,10.1-5.5c2.6-0.4,5.1-1.4,7.4-2.7c2.5-1.4,5-2.7,7.5-4.1
		c0.9-0.5,1.7-1.4,2.5-2.1c0.3-0.3,0.4-0.8,0.7-0.9c2.3-1.1,1.9-2.8,1.3-4.8c-1.1-3.3-1.1-6.8-1-10.2c0-2.7,0.9-5.5,1.3-8.4
		c1.7,0.4,3.1,1.2,4.4,2.2c3.9,3,6.9,6.8,9.9,10.7c1.1,1.4,2.4,2.9,3.9,3.8c5.2,3.2,9.6,7.3,13.7,11.8c2.4,2.7,5.1,5.2,7.7,7.8
		c0.3,0.3,0.6,0.7,0.8,1.1C931.3,691.4,931.3,691.6,931.2,691.7z"/>
	<path class="st0" d="M1456.3,717.4c-1.4-2.8-2.7-5.4-4.1-8c-1.4-2.5-3.3-4.5-5.7-6c-2-1.2-3.7-3-6.1-3.6c-1.9-2.3-4-4.5-5.6-7.1
		c-0.7-1.1-0.7-2.9-0.6-4.4c0.2-2.8,2-4.8,4.3-6c6.8-3.5,10.8-3.7,17.4,0.7c2.3,1.5,3.4,3.9,3.5,6.8c0,0.8-0.1,1.6,0,2.4
		c0.1,0.5,0.4,0.9,0.8,1.6c1.1-1.2,1.2-2.4,1.1-3.5c-0.1-1.7,0.4-2.9,1.7-4c0.4-0.4,0.8-0.8,1.1-1.2c2.6-3.9,6.5-4.3,10.6-3.6
		c2.2,0.4,4.6,0.9,6.3,2.7c0.7,0.7,1.5,1.5,1.9,2.4c0.7,1.8,1.2,3.8,1.7,5.7c0.1,0.4,0.1,0.8,0,1.2c-0.8,3.5-2.8,6.4-4.8,9.2
		c-1.9,0.7-3.8,1.5-5.8,2.1c-2.4,0.7-4.8,1.2-7.1,2c-4,1.5-7.1,4.1-9.1,8C1457.4,715.7,1456.9,716.5,1456.3,717.4z"/>
	<path class="st0" d="M1523,523.1c-2.1,2.9-4.1,5.9-6.3,8.7c-2.4,3.2-5,6.2-7.5,9.3c-0.6,0.8-0.4,1.5-0.3,2.2
		c0.2,4.6,0.4,9.2,0.2,14.1c-1.2-1.1-2.5-2.3-3.7-3.4c-1.3-1.2-2.6-2.3-4.2-3.7c-4.8,3.5-9.1,7.6-13.4,12.6c0.1-0.9,0.1-1.4,0.2-1.9
		c0.6-3,1.3-6.1,2-9.1c0.3-1.2-0.1-2-1.1-2.6c-2.1-1.4-4.2-2.9-6.4-4.2c-1.8-1.1-3.6-2.3-5.3-4.3c3.9-0.4,7.4-0.6,11.1-0.7
		c0.9-2.1,0.5-4.3-0.4-6.3c-1.5-3.4-3.2-6.8-4.9-10.1c-0.2-0.5-0.5-1-0.8-1.7c6,1.7,10,5.8,14.5,9.8c1.5-4.5,1.2-9,2.4-13.6
		c2.8,5,5.1,9.9,6.5,15.2c1.5,0.4,2.6-0.4,3.6-1c2.2-1.5,4.3-3.1,6.4-4.7c1.6-1.2,3.2-2.4,4.8-3.6c0.7-0.5,1.5-0.8,2.3-1.2
		C1522.8,522.9,1522.9,523,1523,523.1z"/>
	<path class="st0" d="M1025.8,709.7c-11.1,7.4-21.7,15.2-32.8,22.4c-0.1-0.1-0.2-0.2-0.4-0.4c0.6-0.8,1.3-1.7,1.9-2.5
		c5.5-6.6,11-13.2,16.5-19.9c0.4-0.5,0.8-1.1,0.7-1.7c-0.2-1.9-0.3-3.8-0.8-5.7c-1.9-6.6-4-13.1-6-19.7c-0.1-0.2-0.2-0.5-0.2-0.7
		c0.7-2.4,0.4-5,2.2-7.1c1.7-2,3-4.3,4.4-6.5c3.1-4.9,6.8-9.4,11.1-13.4c0.2-0.2,0.5-0.4,1.1-0.4c-0.3,0.5-0.5,1-0.8,1.4
		c-2.3,3-4.7,6.1-7,9.1c-0.2,0.3-0.4,0.7-0.7,1c-2.4,2.8-2.2,6-1.4,9.2c1.2,4.6,2.4,9.3,4.5,13.6c0.8,1.7,1.1,3.7,1.8,5.5
		c1.7,4.8,3.5,9.6,5.3,14.4C1025.5,708.8,1025.6,709.2,1025.8,709.7z"/>
	<path class="st0" d="M1065.6,606.8c2.9-1.3,4.6-3.9,6.3-6.4c1.6-2.4,3.6-4.2,6.2-5.5s5.1-3,7.6-4.5c0.2-0.1,0.4-0.3,0.5-0.5
		c0.9-2.2,3-2.7,5-3.3c3-0.9,6-1.5,9-2.3c1.5-0.4,2.8-1,4.3-1.6c0.7-0.3,1.5-0.5,2.3-0.8c-0.2,1.6-1.7,4.1-2.9,5.1
		c-1.8,1.6-3.6,3.3-5.4,5c-0.4,0.4-0.7,1-1.1,1.7c1.1,1.1,2.5,1.6,3.9,1.8c3.1,0.5,6.1,1.3,9.3,0.9c0.7-0.1,1.4,0.2,2.1,0.4
		c3.9,1.3,7.7,2.6,11.5,4c0.5,0.2,1,0.5,1.5,0.7c-3.1,3.3-6.6,5.9-10.5,8c-1.1,0.6-1.9,1.9-2.9,2.8c-0.6,0.5-1.3,1.2-1.9,1.2
		c-2.5,0-4.2,1.4-5.9,2.9c-1.9,1.8-3.6,3.8-5.6,5.6c-1.5,1.4-3.1,2.8-4.9,3.8c-3.8,2.1-7.4,4.4-10.8,7.1c-1.1,0.9-2.2,1.8-4,2.1
		c1.7-3.3,3.7-6.1,5.6-9s3.7-5.8,5.4-8.7c1.8-2.9,3.5-5.8,5.2-8.6c-0.7-1.6-1.9-1.6-3.1-1.5c-0.9,0.1-1.7,0.5-2.6,0.6
		c-2.1,0.3-4.3,0.6-6.4,0.1c-3.3-0.9-6.7-0.5-10-0.3c-1.7,0.1-3.3,0.3-5,0.3c-0.9,0-1.8-0.3-2.7-0.5
		C1065.6,607.1,1065.6,607,1065.6,606.8z"/>
	<path class="st0" d="M941.9,596.6c1.3,1.7,2.2,3,3.2,4.2c2.3,2.7,3.8,5.9,5.3,9.1c1.8,3.8,3.7,7.6,5.6,11.4c1.9,3.8,3.4,7.7,4.4,12
		c-2.8-1.1-4.2-3.4-6-5.4c-3.1-3.4-6.2-6.9-9.3-10.3c-1.4-1.5-3-2.9-4.2-4.6c-3.1-4.1-6.6-7.8-10.2-11.4c-2.5-2.5-4.8-5.3-7.1-8.1
		c-1.4-1.6-2.6-3.4-4.1-5.4c1.1-0.2,1.8-0.4,2.6-0.4c2.6,0,5.3,0.1,7.9,0.2c3,0.1,5.8-0.7,8.8-0.9c-0.7-4.3-1.3-8.2-1.9-12.2
		c0.2-0.1,0.3-0.2,0.5-0.3c2.7,2.3,5.4,4.6,8,7c2.8,2.6,5.4,5.5,8.2,8c3.4,3.1,7.1,5.9,10.6,9c1.7,1.5,3.3,3.2,5.3,5
		c-4.2-0.6-7.8-1.7-11.1-3.5c-0.9-0.5-2-0.7-3-0.6c-2.5,0.2-4.5-0.6-6.6-1.7c-1.4-0.7-3-1-4.5-1.4
		C943.6,596.2,942.9,596.5,941.9,596.6z"/>
	<path class="st0" d="M1207.3,806c2.6,3.5,3.9,9.8,2.7,12.7c0.4,0.2,0.7,0.7,1.1,0.8c4,0.9,8,1.8,12,2.6c3.4,0.7,6.9,1.1,10.4,1.7
		c0.6,0.1,1.3,0.2,1.9,0.4c2.1,0.6,2.4,1.7,1.1,3.3c-0.6,0.7-1.3,1.5-2.1,1.9c-1.6,0.8-2.7,2-3.6,3.4c-0.8,1.2-1.8,2.1-3.2,2.8
		c-2.6,1.4-4.9,3.2-7.1,5.2c-1.6,1.4-3.4,2.6-5.4,3.5s-3.8,2-5.3,3.5c-2.8,2.8-6,5-9.4,6.9c-1.5,0.8-2.9,1.9-4.4,2.9
		c-0.6,0.4-1.3,0.8-2.1,1.1c1.3-2.9,1.8-6,4-8.5c2.5-2.8,4.8-5.9,7.2-8.9c0.3-0.4,0.6-0.8,0.9-1.1c3.3-1.9,4.1-5.5,6.3-8.3
		c-1.1-1.3-2.4-1.4-3.8-1.2c-1.9,0.3-3.8,0.7-5.7,1c-2.3,0.3-4.6,0.6-6.9,0.8c-2.1,0.2-4.3,0.3-6.4,0.4c-1.1,0-2.2-0.1-3.7-0.1
		c1.4-1.7,2.4-3.2,3.7-4.5c4.7-5,9.4-10.1,12.3-16.3C1203,809.1,1205.3,807.8,1207.3,806z"/>
	<path class="st0" d="M1521.4,400.1c-7.8,3-11.6,9.4-15,16.6c-1.7-10.2-7.7-16.2-17.6-18.9c2.6-1.5,4.9-2.6,7-4.1
		c2.1-1.4,4-3.1,5.9-4.8c1.9-1.7,3.8-3.6,5.7-5.5c1.7,3.2,3,6.7,5.2,9.5C1514.9,395.6,1518.1,397.5,1521.4,400.1z"/>
	<path class="st0" d="M1507.9,377.1c-0.3-3.3,0-6.6,1.5-9.6C1510.3,370.9,1509,373.9,1507.9,377.1z"/>
	<path class="st0" d="M1166.8,554.8c1.8,3.3,2.3,6.8,2.3,11c-2.6-3.9-4.5-7.7-7-11.4c-3,2-5.7,3.7-8.4,5.5c-0.1-0.1-0.2-0.2-0.4-0.2
		c1.2-2.1,2.4-4.3,3.8-6.6c-2.8-1.1-5.3-2.2-8.1-3.3c4.1-1.2,8.4-0.4,12.5-1.8c-1.5-2.8-2.3-5.6-2.3-8.7c3,2.7,5.6,5.7,8.2,9
		c2.1-1.7,4-3.4,5.9-5c-1.3,2.6-3.2,4.8-4.1,7.7c3.1,1.9,6.4,3.6,8.4,6.8c-3.2-1.6-6.4-3.1-10-3.7
		C1167.5,554.2,1167.2,554.5,1166.8,554.8z"/>
	<path class="st0" d="M1345.8,875.7c-2.4-2-4.8-4.2-7.4-6.1c-3.6-2.6-6.4-6-9.2-9.3c-2.3-2.8-4.5-5.8-7.1-8.4
		c-4.8-4.7-5.6-10.5-5.3-16.8c0.1-2.5,1.3-4.6,2.9-6.4c1.9-2.3,4.4-3,7.1-2.1c4,1.3,7.7,3.2,9.5,7.4c0.4,0.9,1,1.6,1.5,2.4
		c0.6,0.9,1.1,1.8-0.3,2.7c1.2,0.6,1.9,0.4,2.3-0.6c0.3-0.8,0.4-1.7,0.6-2.6c0.6-3.5,2.3-6.2,5.2-8.3c1.7-1.3,3.2-2.8,4.9-4.2
		c1.2-0.9,2.4-1.8,3.8-2.5c4.3-2.2,8.5-1.2,12.7,0.5c0.4,0.1,0.7,0.4,1,0.7c1.6,2.2,3.2,4.4,4.7,6.6c0.4,0.7,0.7,1.8,0.5,2.5
		c-1,3-2.2,6-3.5,8.9c-0.8,2-2.4,3.4-4.2,4.5c-4.8,3.2-8.4,7.6-12.4,11.6c-4.7,4.6-5.8,10.5-6.8,16.4
		C1346,873.7,1345.9,874.7,1345.8,875.7C1345.7,875.7,1345.8,875.7,1345.8,875.7z"/>
	<path class="st0" d="M1097.2,739.1c-1.9-1.6-3.9-3.2-5.8-4.8c-0.2-0.2-0.4-0.5-0.7-0.7c-3.8-2.2-5.9-6-8.5-9.3
		c-3-3.9-5.3-8.2-6.6-12.9c-0.7-2.7-0.5-5.5-0.7-8.3c0-0.3,0.1-0.6,0.2-0.9c0.8-3.5,8.4-6.4,11.7-3c2.6,2.7,3.7,5.9,4.6,9.2
		c0.4,1.3,0.4,2.7,0.7,4c0.3,1.3,0.9,2.3,2.2,2.9c0.8-0.7,0.6-1.4,0-1.9c-0.9-0.7-0.9-1.6-1-2.6c-0.2-2.7-0.8-5.4,0.1-8
		c1.5-4.1,4.3-6.8,8.2-8.5c3.1,0.4,6.4-0.5,9.3,0.7c2.6,1.1,5.1,2.6,7.5,4.1c2.8,1.7,3.7,4.4,3,7.8c-0.8,3.6-2.8,6.5-4.6,9.7
		c-1.6,2.9-4,5-6.8,6.9c-3,2-5.5,4.6-6.8,8.1c-0.5,1.4-1.7,2.7-2.7,3.9C1099.7,736.7,1098.4,737.8,1097.2,739.1z"/>
	<path class="st0" d="M1000.7,555.4c-0.7-3.6-1.3-6.9-1.8-10.2c-1-6-2-12-3.1-17.9c-0.2-1.2-0.9-2.4-1-3.6c-0.1-1.9,0-3.8,0.3-5.7
		c0.7-5.4,6.9-7.4,10.4-7.2c1.7,0.1,2.9,1,3.4,2.6c0.3,1.1,0.8,2.2,0.7,3.3c-0.3,3.9,0.1,8-1.6,11.8c-0.2,0.4,0,1.4,0.3,1.6
		c0.8,0.5,1.3-0.2,1.5-1c0.2-0.5,0.4-1.1,0.4-1.6c0.1-2.2,1-4.1,2.6-5.5c2-1.8,4.1-3.6,6.3-5c1.1-0.7,2.6-0.8,3.9-1
		c1.2-0.2,1.7,0.5,1.9,1.6c0.6,2.8,0,5.4-0.6,8c-1.4,6-4.2,11.1-8.5,15.5c-1.5,1.5-2.7,3.1-4,4.7c-2.3,2.9-4.6,5.7-8.1,7.3
		C1002.6,553.7,1001.9,554.5,1000.7,555.4z"/>
	<path class="st0" d="M1222.1,715.3c0.5-2.2,1.2-4.5,1.3-6.7c0.3-8.4-0.4-16.7-3-24.8c-0.3-1.1-0.5-2,0.1-3c1.4-2.3,2.7-4.7,4.4-6.8
		c1.8-2.3,3.9-4.4,5.9-6.6c0.7-0.7,1.5-1.5,2.9-0.8c-0.1,0.8-0.1,1.6-0.3,2.4c-1.1,6.7-0.6,13.3,1.8,19.8c0.9,2.3,1.4,4.7,2.1,7.1
		c0.3,1-0.3,1.5-0.9,2.1c-1.4,1.4-2.9,2.8-4.3,4.1c-2.4,2.2-4.2,4.8-5.8,7.5c-1.3,2-2.6,3.9-3.9,5.9
		C1222.3,715.4,1222.2,715.3,1222.1,715.3z"/>
	<path class="st0" d="M1377,438.2c-0.3-1.1-0.5-1.7-0.6-2.3c-1.1-6.1-3-11.9-5.3-17.6c-0.4-1-1.3-2,0-3c0.2-0.1,0.1-0.6,0-0.9
		c-0.4-1.5-0.8-3.1-1.4-4.6c-0.6-1.7-1.3-3.4-2.2-5c-0.6-1.1-1.8-1.9-3-3.1c-0.3-3.1,2.6-5.4,5.9-4.2c2.4,0.9,4.3,2.3,4.8,5.2
		c0.1,0.4,0.4,0.8,0.7,1.2c1.6-0.7,1.3-1.9,1.3-3.1c0-3.2,0.7-6.2,2.7-8.7c1.1-1.4,2-1.7,3.5-0.6c2.2,1.6,3.9,3.5,4.1,6.4
		c0,0.1,0,0.2,0,0.2c0.9,4,0.3,7.6-1.3,11.5c-3,7.2-5.2,14.7-7.6,22.2C1377.7,433.8,1377.5,435.8,1377,438.2z"/>
	<path class="st0" d="M1440.9,808.8c0.5-5.8,1-11.5,1.4-17.3c-0.1,0-0.2,0-0.3,0.1c-0.4-1.1-0.8-2.1-1.1-3.2c-0.4-1.4-0.8-2.8-1-4.2
		c-0.5-3.2,0.6-5.6,3.2-6.5c1.3-0.4,2.6-0.7,4-0.7c2.4,0,4.5,0.9,5.7,3.3c1.2,2.3,1,4.4-0.4,6.5c-0.7,1-0.7,1.1-0.5,2.4
		c1.4-0.1,1.9-1.4,2.4-2.3c2-3.4,5.1-5.4,8.9-6.3c4.3-1,7.7,1.6,7.9,6c0.2,4.1-1.4,6.9-5.1,8.7c-0.8,0.4-1.5,0.9-2.3,1.2
		c-0.6,0.2-1.2,0.6-1.8,0.5c-4-0.6-7.4,1.2-10.6,2.9C1447.2,802,1443.5,804.7,1440.9,808.8z"/>
	<path class="st0" d="M1321,634.3c-1.8-3.4-3.6-6.8-5.4-10.1c-0.6-1.1-1.3-2.2-2-3.2c-3.6-4.7-7.1-9.4-10.9-13.9
		c-1.3-1.6-1.8-3-1.6-4.9c0.3-2.8,1-5.3,2.6-7.6c0.3-0.4,0.6-0.8,0.9-1.1c2.1-2.2,4.7-2,6.5,0.5c1.3,1.8,1.7,3.7,1.8,5.9
		c0,1.1-0.1,2.2,0,3.4c0,0.7,0.3,1.3,0.4,2c0.2,0,0.4,0,0.5,0c0.2-0.4,0.5-0.9,0.6-1.3c0.4-5.2,3.4-8.9,6.9-12.2
		c3-2.9,6.6-1.6,7.4,2.5c0.2,1.1,0.2,2.4,0,3.5c-1.3,6.2-2.9,12.3-4.2,18.4c-1.2,5.8-2.1,11.6-3.2,17.4
		C1321.1,633.7,1321,634,1321,634.3z"/>
	<path class="st0" d="M906.8,475c0.8-0.3,1.6-0.5,2.5-0.8c5.8-1.8,10.7-5.2,15.5-8.7c2.7-2,5.2-4.3,7.7-6.4c0.3-0.2,0.6-0.4,1.1-0.8
		c-1.3,8.7-4.1,17-3.4,25.8c-0.6-1.3-1.2-2.5-1.7-3.8c-0.7-1.7-1.3-3.4-2-5.1s-0.9-1.7-2.7-1.5c-4.2,0.6-8.4,1.3-12.5,1.8
		c-1.4,0.2-2.8,0-4.3,0C906.9,475.4,906.8,475.2,906.8,475z"/>
	<path class="st0" d="M1003.9,411.1c0.1,0.2,0.5,0.5,0.4,0.6c-1,1.9-2,3.7-3.2,5.9c-1.8-3.2-3.4-6-5-8.8c-0.9-1.6-2-3.1-2.7-4.7
		c-1.9-4.3-3-8.7,0.7-12.2c1.9-1.8,4.5-2.3,6.8-1c2.2,1.3,3.6,4.4,3,6.9c-0.3,1.1-0.5,2.3-0.7,3.5c1.3,0.4,1.7-0.2,2-1
		c0.2-0.6,0.2-1.3,0.3-1.9c0.4-3.9,3.1-6,6.4-7.3c2.4-1,4.3,0.2,4.7,2.8c0.5,3.3-0.6,6.3-2.1,9.2c-0.2,0.4-0.7,0.8-1.1,0.8
		c-3.2,0.2-5.1,2.4-7,4.5C1005.6,409.3,1004.7,410.2,1003.9,411.1z"/>
	<path class="st0" d="M878.9,792.6c10.9,8.6,9.1,7.1,13.4,15.2c-0.7-0.2-1.1-0.3-1.6-0.5c-3.4-1.2-6.8-2.4-10.1-3.7
		c-1.3-0.5-2-0.1-2.7,1c-1.4,2-2.9,3.9-4.7,5.7c-0.5-2.3,0.8-4.1,1.3-6.1s1-4,1.8-6C876.9,796.3,877.2,794.1,878.9,792.6z"/>
	<path class="st0" d="M1293.8,517c-0.6-2.2-1.1-4.4-1.6-6.3c1.4-1.5,2.8-2.9,4-4.4s2.3-3.2,3.4-4.9c0.7,2.1,1.2,4,2,5.9
		s1.8,3.7,2.8,5.6c-1.9,1.3-4,0.7-5.7,1.4C1297.1,515,1295.6,516,1293.8,517z"/>
	<path class="st0" d="M1251.9,799c1.4-0.1,1.8-1.2,2.1-2.3c0.9-3.2,1.5-6.5,2.5-9.7c0.6-2,1.8-3.8,2.8-6c1.7,1.8,2.5,3.6,3.2,5.4
		c0.9,2.5,1.7,5,2.4,7.5c0.4,1.3,1.4,2.7-0.2,3.9c1.2,0.8,2.1,1.4,3,1.9c2.1-2.3,4.7-3,9.7-2.6c-1.1,1.6-2.1,3.1-3,4.6
		c-0.5,0.9-1.1,2-1.2,3c-0.1,1.8-0.6,3.2-1.9,4.5c-0.5,0.5-1,1.2-1.5,1.9c-1.7-2.2-3.2-4.3-4.9-6.3c-1.3-1.6-2.8-3.1-4.4-4.4
		c-1.6-1.4-3.6-2-5.8-1.4C1253.8,799.2,1252.8,799,1251.9,799C1251.9,798.9,1251.9,799,1251.9,799z"/>
	<path class="st0" d="M1137.5,820.4c-1.7-2.7-3.3-5.3-4.8-8c-0.7-1.2-1.5-1.5-2.8-1.9c-1.6-0.5-3.2-1.5-4.5-2.6
		c-1.2-1-1.1-2.1-0.2-2.9c1-0.9,2.8-0.9,3.7,0.2c0.5,0.5,0.7,1.3,1.2,1.8c0.3,0.3,0.9,0.5,1.4,0.7c0-0.5,0.2-1,0.1-1.5
		c0-0.3-0.4-0.5-0.5-0.8c-0.8-1.6-0.6-3.1,0.6-4.1c1.4-1.2,2.8-1.4,4.3-0.1c1.8,1.5,3.5,3.3,5.2,5c0.3,0.3,0.4,0.9,0.3,1.3
		C1140.2,811.8,1138.9,816,1137.5,820.4z"/>
	<path class="st0" d="M1237.7,357.1c2.6,2.9,4.1,6.3,5.3,10.2c-2.6-0.6-4.9-1.2-7.2-1.8c-1.2,3.4-2.3,6.5-3.5,10.1
		c-1.7-2-2.3-4.1-3.3-6c-1.1-1.9-2.1-3.9-3.3-6C1229.1,360.4,1232.9,358.1,1237.7,357.1z"/>
	<path class="st1" d="M1084,426.2c-0.8,5.9,1.8,12.1,7.2,17.5c-1,2.2-1.9,4.3-3,6.7c-0.7-4.6-3.5-7.4-7-9.6c-1-0.6-1.5-1.4-1.3-2.6
		c0.5-2.5,0.8-5.1,1.5-7.5C1081.9,429.2,1083,427.9,1084,426.2z"/>
	<path class="st0" d="M1554.6,611.9c0.2-0.5,0.3-1,0.5-1.4c0.3-0.6,0.4-1.4,0.9-1.8c1.1-1.1,2.4-0.6,2.5,0.9
		c0.1,1.4,0.1,2.9-0.8,4.1c-2,2.7-3.7,5.6-4.6,8.9c-0.1,0.3-0.3,0.5-0.9,0.7c0-2.4,0-4.7-0.1-7.1c0-0.9-0.2-1.9-0.4-2.7
		c-0.6-2-0.2-3.3,1.6-4.6c0.2,1.1,0.4,2.1,0.5,3.1C1554.1,611.9,1554.4,611.9,1554.6,611.9z"/>
</g>
</svg>
