<?xml version="1.0" encoding="utf-8"?>
<!-- Generator: Adobe Illustrator 22.1.0, SVG Export Plug-In . SVG Version: 6.00 Build 0)  -->
<svg version="1.0" id="Layer_1" xmlns="http://www.w3.org/2000/svg" xmlns:xlink="http://www.w3.org/1999/xlink" x="0px" y="0px"
	 viewBox="0 0 1920 1200" style="enable-background:new 0 0 1920 1200;" xml:space="preserve">
<path style="fill:none;" d="M966.3,624.8c-2.8,0.3-2.9-11.2-11.2-15.6c0,0-0.9-0.5-12-3c3.3-2.3,3.3-2.6,3.3-2.6
	c0-3.1-16.2-4.7-16.2-5c0-0.2,10.1,0.9,23.6,2.5c3.1-3.3,6.2-6.6,9.3-10c4.2-13.4,5.7-16.3,6.2-16.2c1,0.2-3.2,10.2,1.2,17.4
	c5.4,8.7,20,8.1,19.9,10.6c-0.1,2.2-11.6,0.4-18,7.5C967.2,616.3,968.7,624.6,966.3,624.8z"/>
<path style="fill:none;" d="M1203,550"/>
</svg>
