<?xml version="1.0" encoding="utf-8"?>
<!-- Generator: Adobe Illustrator 22.1.0, SVG Export Plug-In . SVG Version: 6.00 Build 0)  -->
<svg version="1.0" id="Layer_1" xmlns="http://www.w3.org/2000/svg" xmlns:xlink="http://www.w3.org/1999/xlink" x="0px" y="0px"
	 viewBox="0 0 1920 1200" style="enable-background:new 0 0 1920 1200;" xml:space="preserve">
<style type="text/css">
	.st0{fill:#FFFFFF;stroke:#000000;stroke-miterlimit:10;}
</style>
<path class="st0" d="M488.5,886.5c4.8,13,467-271.3,469.1-271.5c53.9,451.5,6.4-14.4,10-14c0.9,0.1,1.1,1.1,2,1
	c2.3-0.3,4.7-7.8,2-13c-0.5-0.9,511.5-300.2,509.9-300.5C1479,288,963.7,588.6,962.6,590c-2.9,3.8-3.9,8-4,8s3-5.4,1-9
	c-1.4-2.6-4.9-3-5-3c-4.2-0.4-395.9-374.8-396.1-374.5C556,215.7,488.4,886.3,488.5,886.5"/>
</svg>
