<?xml version="1.0" encoding="utf-8"?>
<!-- Generator: Adobe Illustrator 22.1.0, SVG Export Plug-In . SVG Version: 6.00 Build 0)  -->
<svg version="1.1" id="Layer_1" xmlns="http://www.w3.org/2000/svg" xmlns:xlink="http://www.w3.org/1999/xlink" x="0px" y="0px"
	 viewBox="0 0 1920 1200" style="enable-background:new 0 0 1920 1200;" xml:space="preserve">
<style type="text/css">
	.st0{fill:#FFFFFF;stroke:#000000;stroke-miterlimit:10;}
</style>
<path class="st0" d="M947.6,599c4.8,13,7.9,16.2,10,16c4.1-0.5,6.4-14.4,10-14c0.9,0.1,1.1,1.1,2,1c2.3-0.3,4.7-7.8,2-13
	c-0.5-0.9-1.4-2.7-3-3c-2.5-0.5-4.9,2.6-6,4c-2.9,3.8-3.9,8-4,8s3-5.4,1-9c-1.4-2.6-4.9-3-5-3c-4.2-0.4-6.8,3.7-7,4
	C945.1,594.2,947.5,598.8,947.6,599"/>
</svg>
